<?xml version="1.0" encoding="UTF-8" standalone="no"?>
<!DOCTYPE svg PUBLIC "-//W3C//DTD SVG 1.1//EN"
 "http://www.w3.org/Graphics/SVG/1.1/DTD/svg11.dtd">
<!-- Generated by graphviz version 2.42.4 (0)
 -->
<!-- Title: G Pages: 1 -->
<svg width="1151pt" height="611pt"
 viewBox="0.00 0.00 1150.50 611.00" xmlns="http://www.w3.org/2000/svg" xmlns:xlink="http://www.w3.org/1999/xlink">
<g id="graph0" class="graph" transform="scale(1 1) rotate(0) translate(18 593)">
<title>G</title>
<polygon fill="white" stroke="transparent" points="-18,18 -18,-593 1132.5,-593 1132.5,18 -18,18"/>
<text text-anchor="middle" x="557.25" y="-551.8" font-family="Noto Sans CJK SC" font-size="24.00">全屋传感器架构 V3.2</text>
<g id="clust1" class="cluster">
<title>cluster_safe</title>
<path fill="white" stroke="#d9534f" d="M20,-83C20,-83 663,-83 663,-83 669,-83 675,-89 675,-95 675,-95 675,-161 675,-161 675,-167 669,-173 663,-173 663,-173 20,-173 20,-173 14,-173 8,-167 8,-161 8,-161 8,-95 8,-95 8,-89 14,-83 20,-83"/>
<text text-anchor="middle" x="341.5" y="-149.8" font-family="Noto Sans CJK SC" font-size="24.00">独立安全层（不依赖 Home Assistant）</text>
</g>
<g id="clust2" class="cluster">
<title>cluster_zigbee</title>
<path fill="white" stroke="#6f4eaa" d="M124,-443C124,-443 843,-443 843,-443 849,-443 855,-449 855,-455 855,-455 855,-521 855,-521 855,-527 849,-533 843,-533 843,-533 124,-533 124,-533 118,-533 112,-527 112,-521 112,-521 112,-455 112,-455 112,-449 118,-443 124,-443"/>
<text text-anchor="middle" x="483.5" y="-509.8" font-family="Noto Sans CJK SC" font-size="24.00">Zigbee 本地传感器层</text>
</g>
<!-- smoke -->
<g id="node1" class="node">
<title>smoke</title>
<path fill="#fce8e6" stroke="#607080" stroke-width="1.2" d="M496,-131C496,-131 372,-131 372,-131 366,-131 360,-125 360,-119 360,-119 360,-103 360,-103 360,-97 366,-91 372,-91 372,-91 496,-91 496,-91 502,-91 508,-97 508,-103 508,-103 508,-119 508,-119 508,-125 502,-131 496,-131"/>
<text text-anchor="middle" x="434" y="-114.4" font-family="Noto Sans CJK SC" font-size="12.00">烟雾报警</text>
<text text-anchor="middle" x="434" y="-101.4" font-family="Noto Sans CJK SC" font-size="12.00">客厅/储物间/Balcony1</text>
</g>
<!-- notify -->
<g id="node18" class="node">
<title>notify</title>
<path fill="#f2f4f7" stroke="#607080" stroke-width="1.2" d="M649.5,-38C649.5,-38 540.5,-38 540.5,-38 534.5,-38 528.5,-32 528.5,-26 528.5,-26 528.5,-14 528.5,-14 528.5,-8 534.5,-2 540.5,-2 540.5,-2 649.5,-2 649.5,-2 655.5,-2 661.5,-8 661.5,-14 661.5,-14 661.5,-26 661.5,-26 661.5,-32 655.5,-38 649.5,-38"/>
<text text-anchor="middle" x="595" y="-16.9" font-family="Noto Sans CJK SC" font-size="12.00">手机通知 / 历史记录</text>
</g>
<!-- smoke&#45;&gt;notify -->
<g id="edge14" class="edge">
<title>smoke&#45;&gt;notify</title>
<path fill="none" stroke="#657786" stroke-width="1.3" stroke-dasharray="5,2" d="M468.54,-90.91C493.91,-76.88 528.45,-57.79 555.02,-43.1"/>
<polygon fill="#657786" stroke="#657786" stroke-width="1.3" points="557,-46.01 564.06,-38.11 553.61,-39.88 557,-46.01"/>
<text text-anchor="middle" x="553.5" y="-63" font-family="Noto Sans CJK SC" font-size="10.00">可选状态接入</text>
</g>
<!-- gas -->
<g id="node2" class="node">
<title>gas</title>
<path fill="#fce8e6" stroke="#607080" stroke-width="1.2" d="M654.5,-129C654.5,-129 545.5,-129 545.5,-129 539.5,-129 533.5,-123 533.5,-117 533.5,-117 533.5,-105 533.5,-105 533.5,-99 539.5,-93 545.5,-93 545.5,-93 654.5,-93 654.5,-93 660.5,-93 666.5,-99 666.5,-105 666.5,-105 666.5,-117 666.5,-117 666.5,-123 660.5,-129 654.5,-129"/>
<text text-anchor="middle" x="600" y="-107.9" font-family="Noto Sans CJK SC" font-size="12.00">燃气 / 一氧化碳报警</text>
</g>
<!-- gas&#45;&gt;notify -->
<g id="edge15" class="edge">
<title>gas&#45;&gt;notify</title>
<path fill="none" stroke="#657786" stroke-width="1.3" stroke-dasharray="5,2" d="M599.04,-92.84C598.33,-80.28 597.36,-62.98 596.55,-48.5"/>
<polygon fill="#657786" stroke="#657786" stroke-width="1.3" points="600.02,-47.9 595.96,-38.11 593.03,-48.29 600.02,-47.9"/>
<text text-anchor="middle" x="626.5" y="-63" font-family="Noto Sans CJK SC" font-size="10.00">可选状态接入</text>
</g>
<!-- electrical -->
<g id="node3" class="node">
<title>electrical</title>
<path fill="#fce8e6" stroke="#607080" stroke-width="1.2" d="M322.5,-129C322.5,-129 163.5,-129 163.5,-129 157.5,-129 151.5,-123 151.5,-117 151.5,-117 151.5,-105 151.5,-105 151.5,-99 157.5,-93 163.5,-93 163.5,-93 322.5,-93 322.5,-93 328.5,-93 334.5,-99 334.5,-105 334.5,-105 334.5,-117 334.5,-117 334.5,-123 328.5,-129 322.5,-129"/>
<text text-anchor="middle" x="243" y="-107.9" font-family="Noto Sans CJK SC" font-size="12.00">断路器、漏保、设备原厂保护</text>
</g>
<!-- water_manual -->
<g id="node4" class="node">
<title>water_manual</title>
<path fill="#fce8e6" stroke="#607080" stroke-width="1.2" d="M114.5,-129C114.5,-129 27.5,-129 27.5,-129 21.5,-129 15.5,-123 15.5,-117 15.5,-117 15.5,-105 15.5,-105 15.5,-99 21.5,-93 27.5,-93 27.5,-93 114.5,-93 114.5,-93 120.5,-93 126.5,-99 126.5,-105 126.5,-105 126.5,-117 126.5,-117 126.5,-123 120.5,-129 114.5,-129"/>
<text text-anchor="middle" x="71" y="-107.9" font-family="Noto Sans CJK SC" font-size="12.00">总水阀手动操作</text>
</g>
<!-- th -->
<g id="node5" class="node">
<title>th</title>
<path fill="#eee8fa" stroke="#607080" stroke-width="1.2" d="M195.5,-489C195.5,-489 132.5,-489 132.5,-489 126.5,-489 120.5,-483 120.5,-477 120.5,-477 120.5,-465 120.5,-465 120.5,-459 126.5,-453 132.5,-453 132.5,-453 195.5,-453 195.5,-453 201.5,-453 207.5,-459 207.5,-465 207.5,-465 207.5,-477 207.5,-477 207.5,-483 201.5,-489 195.5,-489"/>
<text text-anchor="middle" x="164" y="-467.9" font-family="Noto Sans CJK SC" font-size="12.00">温湿度 × 8</text>
</g>
<!-- coordinator -->
<g id="node11" class="node">
<title>coordinator</title>
<path fill="#ddeaf7" stroke="#2474b5" stroke-width="2" d="M456,-410C456,-410 372,-410 372,-410 366,-410 360,-404 360,-398 360,-398 360,-382 360,-382 360,-376 366,-370 372,-370 372,-370 456,-370 456,-370 462,-370 468,-376 468,-382 468,-382 468,-398 468,-398 468,-404 462,-410 456,-410"/>
<text text-anchor="middle" x="414" y="-393.4" font-family="Noto Sans CJK SC" font-size="12.00">PoE / Ethernet</text>
<text text-anchor="middle" x="414" y="-380.4" font-family="Noto Sans CJK SC" font-size="12.00">Zigbee 协调器</text>
</g>
<!-- th&#45;&gt;coordinator -->
<g id="edge1" class="edge">
<title>th&#45;&gt;coordinator</title>
<path fill="none" stroke="#657786" stroke-width="1.3" d="M196.72,-452.96C204.25,-449.4 212.31,-445.86 220,-443 262.31,-427.29 311.43,-414.17 349.65,-405.04"/>
<polygon fill="#657786" stroke="#657786" stroke-width="1.3" points="350.7,-408.39 359.63,-402.69 349.09,-401.58 350.7,-408.39"/>
</g>
<!-- co2 -->
<g id="node6" class="node">
<title>co2</title>
<path fill="#e9f4f7" stroke="#607080" stroke-width="1.2" d="M691.5,-491C691.5,-491 604.5,-491 604.5,-491 598.5,-491 592.5,-485 592.5,-479 592.5,-479 592.5,-463 592.5,-463 592.5,-457 598.5,-451 604.5,-451 604.5,-451 691.5,-451 691.5,-451 697.5,-451 703.5,-457 703.5,-463 703.5,-463 703.5,-479 703.5,-479 703.5,-485 697.5,-491 691.5,-491"/>
<text text-anchor="middle" x="648" y="-474.4" font-family="Noto Sans CJK SC" font-size="12.00">CO₂ × 2</text>
<text text-anchor="middle" x="648" y="-461.4" font-family="Noto Sans CJK SC" font-size="12.00">ESPHome/LAN</text>
</g>
<!-- ha -->
<g id="node14" class="node">
<title>ha</title>
<path fill="#dcebfa" stroke="#2474b5" stroke-width="2" d="M832.5,-131C832.5,-131 709.5,-131 709.5,-131 703.5,-131 697.5,-125 697.5,-119 697.5,-119 697.5,-103 697.5,-103 697.5,-97 703.5,-91 709.5,-91 709.5,-91 832.5,-91 832.5,-91 838.5,-91 844.5,-97 844.5,-103 844.5,-103 844.5,-119 844.5,-119 844.5,-125 838.5,-131 832.5,-131"/>
<text text-anchor="middle" x="771" y="-114.4" font-family="Noto Sans CJK SC" font-size="12.00">Home Assistant</text>
<text text-anchor="middle" x="771" y="-101.4" font-family="Noto Sans CJK SC" font-size="12.00">状态、自动化、仪表盘</text>
</g>
<!-- co2&#45;&gt;ha -->
<g id="edge8" class="edge">
<title>co2&#45;&gt;ha</title>
<path fill="none" stroke="#657786" stroke-width="1.3" d="M648,-450.84C648,-434.85 648,-411.44 648,-391 648,-391 648,-391 648,-231 648,-206.52 698.97,-164.25 735.28,-137.23"/>
<polygon fill="#657786" stroke="#657786" stroke-width="1.3" points="737.72,-139.79 743.7,-131.05 733.57,-134.15 737.72,-139.79"/>
<text text-anchor="middle" x="684.5" y="-308.5" font-family="Noto Sans CJK SC" font-size="10.00">ESPHome / LAN</text>
</g>
<!-- presence -->
<g id="node7" class="node">
<title>presence</title>
<path fill="#eaf6ed" stroke="#607080" stroke-width="1.2" d="M337.5,-489C337.5,-489 244.5,-489 244.5,-489 238.5,-489 232.5,-483 232.5,-477 232.5,-477 232.5,-465 232.5,-465 232.5,-459 238.5,-453 244.5,-453 244.5,-453 337.5,-453 337.5,-453 343.5,-453 349.5,-459 349.5,-465 349.5,-465 349.5,-477 349.5,-477 349.5,-483 343.5,-489 337.5,-489"/>
<text text-anchor="middle" x="291" y="-467.9" font-family="Noto Sans CJK SC" font-size="12.00">人体/存在 × 7–8</text>
</g>
<!-- presence&#45;&gt;coordinator -->
<g id="edge2" class="edge">
<title>presence&#45;&gt;coordinator</title>
<path fill="none" stroke="#657786" stroke-width="1.3" d="M317.69,-452.86C334.65,-441.97 356.87,-427.7 375.69,-415.6"/>
<polygon fill="#657786" stroke="#657786" stroke-width="1.3" points="377.82,-418.4 384.35,-410.05 374.04,-412.51 377.82,-418.4"/>
</g>
<!-- contact -->
<g id="node8" class="node">
<title>contact</title>
<path fill="#eee8fa" stroke="#607080" stroke-width="1.2" d="M441.5,-489C441.5,-489 386.5,-489 386.5,-489 380.5,-489 374.5,-483 374.5,-477 374.5,-477 374.5,-465 374.5,-465 374.5,-459 380.5,-453 386.5,-453 386.5,-453 441.5,-453 441.5,-453 447.5,-453 453.5,-459 453.5,-465 453.5,-465 453.5,-477 453.5,-477 453.5,-483 447.5,-489 441.5,-489"/>
<text text-anchor="middle" x="414" y="-467.9" font-family="Noto Sans CJK SC" font-size="12.00">门磁/窗磁</text>
</g>
<!-- contact&#45;&gt;coordinator -->
<g id="edge3" class="edge">
<title>contact&#45;&gt;coordinator</title>
<path fill="none" stroke="#657786" stroke-width="1.3" d="M414,-452.86C414,-443.3 414,-431.13 414,-420.12"/>
<polygon fill="#657786" stroke="#657786" stroke-width="1.3" points="417.5,-420.05 414,-410.05 410.5,-420.05 417.5,-420.05"/>
</g>
<!-- leak -->
<g id="node9" class="node">
<title>leak</title>
<path fill="#e5f1fb" stroke="#607080" stroke-width="1.2" d="M555.5,-489C555.5,-489 490.5,-489 490.5,-489 484.5,-489 478.5,-483 478.5,-477 478.5,-477 478.5,-465 478.5,-465 478.5,-459 484.5,-453 490.5,-453 490.5,-453 555.5,-453 555.5,-453 561.5,-453 567.5,-459 567.5,-465 567.5,-465 567.5,-477 567.5,-477 567.5,-483 561.5,-489 555.5,-489"/>
<text text-anchor="middle" x="523" y="-467.9" font-family="Noto Sans CJK SC" font-size="12.00">水浸 × 5–7</text>
</g>
<!-- leak&#45;&gt;coordinator -->
<g id="edge4" class="edge">
<title>leak&#45;&gt;coordinator</title>
<path fill="none" stroke="#657786" stroke-width="1.3" d="M499.35,-452.86C484.53,-442.12 465.16,-428.08 448.63,-416.1"/>
<polygon fill="#657786" stroke="#657786" stroke-width="1.3" points="450.43,-413.08 440.28,-410.05 446.32,-418.75 450.43,-413.08"/>
</g>
<!-- airq -->
<g id="node10" class="node">
<title>airq</title>
<path fill="#e9f4f7" stroke="#607080" stroke-width="1.2" d="M835,-491C835,-491 741,-491 741,-491 735,-491 729,-485 729,-479 729,-479 729,-463 729,-463 729,-457 735,-451 741,-451 741,-451 835,-451 835,-451 841,-451 847,-457 847,-463 847,-463 847,-479 847,-479 847,-485 841,-491 835,-491"/>
<text text-anchor="middle" x="788" y="-474.4" font-family="Noto Sans CJK SC" font-size="12.00">VOC/PM</text>
<text text-anchor="middle" x="788" y="-461.4" font-family="Noto Sans CJK SC" font-size="12.00">Balcony1 可后装</text>
</g>
<!-- airq&#45;&gt;ha -->
<g id="edge9" class="edge">
<title>airq&#45;&gt;ha</title>
<path fill="none" stroke="#657786" stroke-width="1.3" d="M781.48,-450.77C776.68,-434.92 771,-411.76 771,-391 771,-391 771,-391 771,-231 771,-200.54 771,-165.7 771,-141.63"/>
<polygon fill="#657786" stroke="#657786" stroke-width="1.3" points="774.5,-141.37 771,-131.38 767.5,-141.38 774.5,-141.37"/>
<text text-anchor="middle" x="807.5" y="-308.5" font-family="Noto Sans CJK SC" font-size="10.00">ESPHome / LAN</text>
</g>
<!-- z2m -->
<g id="node12" class="node">
<title>z2m</title>
<path fill="#e8edf5" stroke="#607080" stroke-width="1.2" d="M552.5,-329C552.5,-329 471.5,-329 471.5,-329 465.5,-329 459.5,-323 459.5,-317 459.5,-317 459.5,-305 459.5,-305 459.5,-299 465.5,-293 471.5,-293 471.5,-293 552.5,-293 552.5,-293 558.5,-293 564.5,-299 564.5,-305 564.5,-305 564.5,-317 564.5,-317 564.5,-323 558.5,-329 552.5,-329"/>
<text text-anchor="middle" x="512" y="-307.9" font-family="Noto Sans CJK SC" font-size="12.00">Zigbee2MQTT</text>
</g>
<!-- coordinator&#45;&gt;z2m -->
<g id="edge5" class="edge">
<title>coordinator&#45;&gt;z2m</title>
<path fill="none" stroke="#657786" stroke-width="1.3" d="M438.22,-369.97C451.49,-359.54 468.05,-346.53 482.11,-335.48"/>
<polygon fill="#657786" stroke="#657786" stroke-width="1.3" points="484.36,-338.17 490.06,-329.24 480.03,-332.66 484.36,-338.17"/>
</g>
<!-- mqtt -->
<g id="node13" class="node">
<title>mqtt</title>
<path fill="#e8edf5" stroke="#607080" stroke-width="1.2" d="M597,-250C597,-250 501,-250 501,-250 495,-250 489,-244 489,-238 489,-238 489,-226 489,-226 489,-220 495,-214 501,-214 501,-214 597,-214 597,-214 603,-214 609,-220 609,-226 609,-226 609,-238 609,-238 609,-244 603,-250 597,-250"/>
<text text-anchor="middle" x="549" y="-228.9" font-family="Noto Sans CJK SC" font-size="12.00">Mosquitto MQTT</text>
</g>
<!-- z2m&#45;&gt;mqtt -->
<g id="edge6" class="edge">
<title>z2m&#45;&gt;mqtt</title>
<path fill="none" stroke="#657786" stroke-width="1.3" d="M520.21,-292.91C524.95,-283.04 531.02,-270.42 536.36,-259.31"/>
<polygon fill="#657786" stroke="#657786" stroke-width="1.3" points="539.63,-260.57 540.81,-250.04 533.33,-257.54 539.63,-260.57"/>
</g>
<!-- mqtt&#45;&gt;ha -->
<g id="edge7" class="edge">
<title>mqtt&#45;&gt;ha</title>
<path fill="none" stroke="#657786" stroke-width="1.3" d="M570.82,-213.94C586.22,-202.78 607.81,-188.87 629,-181 650.92,-172.86 659.23,-181.55 681,-173 702.55,-164.54 724.1,-150.19 740.71,-137.53"/>
<polygon fill="#657786" stroke="#657786" stroke-width="1.3" points="743.2,-140.03 748.92,-131.11 738.89,-134.51 743.2,-140.03"/>
</g>
<!-- actuators -->
<g id="node17" class="node">
<title>actuators</title>
<path fill="#eaf6ed" stroke="#2e8b57" stroke-width="2" d="M845.5,-40C845.5,-40 698.5,-40 698.5,-40 692.5,-40 686.5,-34 686.5,-28 686.5,-28 686.5,-12 686.5,-12 686.5,-6 692.5,0 698.5,0 698.5,0 845.5,0 845.5,0 851.5,0 857.5,-6 857.5,-12 857.5,-12 857.5,-28 857.5,-28 857.5,-34 851.5,-40 845.5,-40"/>
<text text-anchor="middle" x="772" y="-23.4" font-family="Noto Sans CJK SC" font-size="12.00">执行器</text>
<text text-anchor="middle" x="772" y="-10.4" font-family="Noto Sans CJK SC" font-size="12.00">灯光、窗帘、排风、总水阀</text>
</g>
<!-- ha&#45;&gt;actuators -->
<g id="edge12" class="edge">
<title>ha&#45;&gt;actuators</title>
<path fill="none" stroke="#657786" stroke-width="1.3" d="M771.22,-90.69C771.35,-78.91 771.52,-63.62 771.67,-50.36"/>
<polygon fill="#657786" stroke="#657786" stroke-width="1.3" points="775.17,-50.31 771.78,-40.27 768.17,-50.23 775.17,-50.31"/>
<text text-anchor="middle" x="791" y="-63" font-family="Noto Sans CJK SC" font-size="10.00">本地联动</text>
</g>
<!-- ha&#45;&gt;notify -->
<g id="edge13" class="edge">
<title>ha&#45;&gt;notify</title>
<path fill="none" stroke="#657786" stroke-width="1.3" d="M733.24,-90.91C705.26,-76.76 667.09,-57.46 637.95,-42.72"/>
<polygon fill="#657786" stroke="#657786" stroke-width="1.3" points="639.33,-39.49 628.83,-38.11 636.17,-45.74 639.33,-39.49"/>
</g>
<!-- modbus -->
<g id="node15" class="node">
<title>modbus</title>
<path fill="#fff2d8" stroke="#d28e1e" stroke-width="1.2" d="M930.5,-252C930.5,-252 821.5,-252 821.5,-252 815.5,-252 809.5,-246 809.5,-240 809.5,-240 809.5,-224 809.5,-224 809.5,-218 815.5,-212 821.5,-212 821.5,-212 930.5,-212 930.5,-212 936.5,-212 942.5,-218 942.5,-224 942.5,-224 942.5,-240 942.5,-240 942.5,-246 936.5,-252 930.5,-252"/>
<text text-anchor="middle" x="876" y="-235.4" font-family="Noto Sans CJK SC" font-size="12.00">Modbus 状态</text>
<text text-anchor="middle" x="876" y="-222.4" font-family="Noto Sans CJK SC" font-size="12.00">日立空调 / 格恩加湿</text>
</g>
<!-- modbus&#45;&gt;ha -->
<g id="edge10" class="edge">
<title>modbus&#45;&gt;ha</title>
<path fill="none" stroke="#657786" stroke-width="1.3" d="M859.13,-211.88C841.68,-192.1 814.28,-161.05 794.67,-138.83"/>
<polygon fill="#657786" stroke="#657786" stroke-width="1.3" points="797.07,-136.25 787.83,-131.07 791.82,-140.89 797.07,-136.25"/>
<text text-anchor="middle" x="879.5" y="-184" font-family="Noto Sans CJK SC" font-size="10.00">RS&#45;485→Ethernet</text>
</g>
<!-- meters -->
<g id="node16" class="node">
<title>meters</title>
<path fill="#fff2d8" stroke="#607080" stroke-width="1.2" d="M1102.5,-250C1102.5,-250 979.5,-250 979.5,-250 973.5,-250 967.5,-244 967.5,-238 967.5,-238 967.5,-226 967.5,-226 967.5,-220 973.5,-214 979.5,-214 979.5,-214 1102.5,-214 1102.5,-214 1108.5,-214 1114.5,-220 1114.5,-226 1114.5,-226 1114.5,-238 1114.5,-238 1114.5,-244 1108.5,-250 1102.5,-250"/>
<text text-anchor="middle" x="1041" y="-228.9" font-family="Noto Sans CJK SC" font-size="12.00">用水 / 用电 / UPS 状态</text>
</g>
<!-- meters&#45;&gt;ha -->
<g id="edge11" class="edge">
<title>meters&#45;&gt;ha</title>
<path fill="none" stroke="#657786" stroke-width="1.3" d="M1002.32,-213.95C955.51,-193.32 876.46,-158.48 824,-135.36"/>
<polygon fill="#657786" stroke="#657786" stroke-width="1.3" points="825.09,-132.02 814.53,-131.19 822.27,-138.42 825.09,-132.02"/>
</g>
</g>
</svg>
