<?xml version="1.0" encoding="UTF-8" standalone="no"?>
<!DOCTYPE svg PUBLIC "-//W3C//DTD SVG 1.1//EN"
 "http://www.w3.org/Graphics/SVG/1.1/DTD/svg11.dtd">
<!-- Generated by graphviz version 2.42.4 (0)
 -->
<!-- Title: G Pages: 1 -->
<svg width="1655pt" height="661pt"
 viewBox="0.00 0.00 1655.00 661.18" xmlns="http://www.w3.org/2000/svg" xmlns:xlink="http://www.w3.org/1999/xlink">
<g id="graph0" class="graph" transform="scale(1 1) rotate(0) translate(18 643.18)">
<title>G</title>
<polygon fill="white" stroke="transparent" points="-18,18 -18,-643.18 1637,-643.18 1637,18 -18,18"/>
<text text-anchor="middle" x="809.5" y="-601.98" font-family="Noto Sans CJK SC" font-size="24.00">全屋网络架构 V3.2</text>
<g id="clust1" class="cluster">
<title>cluster_mgmt</title>
<path fill="white" stroke="#6e7b88" d="M472,-142C472,-142 779,-142 779,-142 785,-142 791,-148 791,-154 791,-154 791,-220 791,-220 791,-226 785,-232 779,-232 779,-232 472,-232 472,-232 466,-232 460,-226 460,-220 460,-220 460,-154 460,-154 460,-148 466,-142 472,-142"/>
<text text-anchor="middle" x="625.5" y="-208.8" font-family="Noto Sans CJK SC" font-size="24.00">VLAN 99 管理</text>
</g>
<g id="clust2" class="cluster">
<title>cluster_trusted</title>
<path fill="white" stroke="#2e8b57" d="M20,-8C20,-8 403,-8 403,-8 409,-8 415,-14 415,-20 415,-20 415,-99 415,-99 415,-105 409,-111 403,-111 403,-111 20,-111 20,-111 14,-111 8,-105 8,-99 8,-99 8,-20 8,-20 8,-14 14,-8 20,-8"/>
<text text-anchor="middle" x="211.5" y="-87.8" font-family="Noto Sans CJK SC" font-size="24.00">VLAN 10 Trusted</text>
</g>
<g id="clust3" class="cluster">
<title>cluster_auto</title>
<path fill="white" stroke="#6f4eaa" d="M812,-142C812,-142 1388,-142 1388,-142 1394,-142 1400,-148 1400,-154 1400,-154 1400,-220 1400,-220 1400,-226 1394,-232 1388,-232 1388,-232 812,-232 812,-232 806,-232 800,-226 800,-220 800,-220 800,-154 800,-154 800,-148 806,-142 812,-142"/>
<text text-anchor="middle" x="1100" y="-208.8" font-family="Noto Sans CJK SC" font-size="24.00">VLAN 20 Automation</text>
</g>
<g id="clust4" class="cluster">
<title>cluster_iot</title>
<path fill="white" stroke="#d28e1e" d="M437,-14.5C437,-14.5 847,-14.5 847,-14.5 853,-14.5 859,-20.5 859,-26.5 859,-26.5 859,-92.5 859,-92.5 859,-98.5 853,-104.5 847,-104.5 847,-104.5 437,-104.5 437,-104.5 431,-104.5 425,-98.5 425,-92.5 425,-92.5 425,-26.5 425,-26.5 425,-20.5 431,-14.5 437,-14.5"/>
<text text-anchor="middle" x="642" y="-81.3" font-family="Noto Sans CJK SC" font-size="24.00">VLAN 30 IoT</text>
</g>
<g id="clust5" class="cluster">
<title>cluster_sec</title>
<path fill="white" stroke="#c33a3a" d="M1420,-142C1420,-142 1599,-142 1599,-142 1605,-142 1611,-148 1611,-154 1611,-154 1611,-220 1611,-220 1611,-226 1605,-232 1599,-232 1599,-232 1420,-232 1420,-232 1414,-232 1408,-226 1408,-220 1408,-220 1408,-154 1408,-154 1408,-148 1414,-142 1420,-142"/>
<text text-anchor="middle" x="1509.5" y="-208.8" font-family="Noto Sans CJK SC" font-size="24.00">VLAN 40 Security</text>
</g>
<g id="clust6" class="cluster">
<title>cluster_guest</title>
<path fill="white" stroke="#7c8793" d="M880,-14.5C880,-14.5 1032,-14.5 1032,-14.5 1038,-14.5 1044,-20.5 1044,-26.5 1044,-26.5 1044,-92.5 1044,-92.5 1044,-98.5 1038,-104.5 1032,-104.5 1032,-104.5 880,-104.5 880,-104.5 874,-104.5 868,-98.5 868,-92.5 868,-92.5 868,-26.5 868,-26.5 868,-20.5 874,-14.5 880,-14.5"/>
<text text-anchor="middle" x="956" y="-81.3" font-family="Noto Sans CJK SC" font-size="24.00">VLAN 50 Guest</text>
</g>
<!-- internet -->
<g id="node1" class="node">
<title>internet</title>
<ellipse fill="#e8f2fc" stroke="#2474b5" cx="767" cy="-572.09" rx="72.25" ry="19.18"/>
<text text-anchor="middle" x="767" y="-568.99" font-family="Noto Sans CJK SC" font-size="12.00">1000M 互联网</text>
</g>
<!-- ont -->
<g id="node2" class="node">
<title>ont</title>
<path fill="#f2f5f8" stroke="#607080" d="M798.5,-502C798.5,-502 735.5,-502 735.5,-502 729.5,-502 723.5,-496 723.5,-490 723.5,-490 723.5,-478 723.5,-478 723.5,-472 729.5,-466 735.5,-466 735.5,-466 798.5,-466 798.5,-466 804.5,-466 810.5,-472 810.5,-478 810.5,-478 810.5,-490 810.5,-490 810.5,-496 804.5,-502 798.5,-502"/>
<text text-anchor="middle" x="767" y="-480.9" font-family="Noto Sans CJK SC" font-size="12.00">光猫 / ONT</text>
</g>
<!-- internet&#45;&gt;ont -->
<g id="edge1" class="edge">
<title>internet&#45;&gt;ont</title>
<path fill="none" stroke="#657786" stroke-width="1.4" d="M767,-552.83C767,-540.99 767,-525.36 767,-512.08"/>
<polygon fill="#657786" stroke="#657786" stroke-width="1.4" points="770.5,-512.06 767,-502.06 763.5,-512.06 770.5,-512.06"/>
<text text-anchor="middle" x="778.5" y="-525" font-family="Noto Sans CJK SC" font-size="10.00">WAN</text>
</g>
<!-- router -->
<g id="node3" class="node">
<title>router</title>
<path fill="#ddeaf7" stroke="#2474b5" stroke-width="2" d="M831,-415C831,-415 703,-415 703,-415 697,-415 691,-409 691,-403 691,-403 691,-374 691,-374 691,-368 697,-362 703,-362 703,-362 831,-362 831,-362 837,-362 843,-368 843,-374 843,-374 843,-403 843,-403 843,-409 837,-415 831,-415"/>
<text text-anchor="middle" x="767" y="-398.4" font-family="Noto Sans CJK SC" font-size="12.00">独立路由器 / 防火墙</text>
<text text-anchor="middle" x="767" y="-385.4" font-family="Noto Sans CJK SC" font-size="12.00">OPNsense 或 OpenWrt</text>
<text text-anchor="middle" x="767" y="-372.4" font-family="Noto Sans CJK SC" font-size="12.00">WireGuard + VLAN</text>
</g>
<!-- ont&#45;&gt;router -->
<g id="edge2" class="edge">
<title>ont&#45;&gt;router</title>
<path fill="none" stroke="#657786" stroke-width="1.4" d="M767,-465.85C767,-454.51 767,-439.22 767,-425.3"/>
<polygon fill="#657786" stroke="#657786" stroke-width="1.4" points="770.5,-425.01 767,-415.01 763.5,-425.01 770.5,-425.01"/>
<text text-anchor="middle" x="778.5" y="-438" font-family="Noto Sans CJK SC" font-size="10.00">WAN</text>
</g>
<!-- sw -->
<g id="node4" class="node">
<title>sw</title>
<path fill="#ddeaf7" stroke="#2474b5" stroke-width="2" d="M882,-311C882,-311 652,-311 652,-311 646,-311 640,-305 640,-299 640,-299 640,-283 640,-283 640,-277 646,-271 652,-271 652,-271 882,-271 882,-271 888,-271 894,-277 894,-283 894,-283 894,-299 894,-299 894,-305 888,-311 882,-311"/>
<text text-anchor="middle" x="767" y="-294.4" font-family="Noto Sans CJK SC" font-size="12.00">16口可管理 PoE+ 交换机</text>
<text text-anchor="middle" x="767" y="-281.4" font-family="Noto Sans CJK SC" font-size="12.00">≥8 PoE+｜≥4×2.5G｜可选2×10G/SFP+</text>
</g>
<!-- router&#45;&gt;sw -->
<g id="edge3" class="edge">
<title>router&#45;&gt;sw</title>
<path fill="none" stroke="#657786" stroke-width="1.4" d="M767,-361.91C767,-349.48 767,-334.47 767,-321.55"/>
<polygon fill="#657786" stroke="#657786" stroke-width="1.4" points="770.5,-321.3 767,-311.3 763.5,-321.3 770.5,-321.3"/>
<text text-anchor="middle" x="797" y="-334" font-family="Noto Sans CJK SC" font-size="10.00">2.5GbE trunk</text>
</g>
<!-- ap1 -->
<g id="node5" class="node">
<title>ap1</title>
<path fill="#f2f4f7" stroke="#607080" d="M530.5,-190C530.5,-190 479.5,-190 479.5,-190 473.5,-190 467.5,-184 467.5,-178 467.5,-178 467.5,-162 467.5,-162 467.5,-156 473.5,-150 479.5,-150 479.5,-150 530.5,-150 530.5,-150 536.5,-150 542.5,-156 542.5,-162 542.5,-162 542.5,-178 542.5,-178 542.5,-184 536.5,-190 530.5,-190"/>
<text text-anchor="middle" x="505" y="-173.4" font-family="Noto Sans CJK SC" font-size="12.00">AP1 走廊</text>
<text text-anchor="middle" x="505" y="-160.4" font-family="Noto Sans CJK SC" font-size="12.00">PoE</text>
</g>
<!-- sw&#45;&gt;ap1 -->
<g id="edge4" class="edge">
<title>sw&#45;&gt;ap1</title>
<path fill="none" stroke="#657786" stroke-width="1.4" d="M647.39,-270.95C615.68,-262.34 582.61,-249.92 555,-232 541.87,-223.48 530.5,-210.42 521.94,-198.56"/>
<polygon fill="#657786" stroke="#657786" stroke-width="1.4" points="524.76,-196.48 516.21,-190.22 518.99,-200.44 524.76,-196.48"/>
</g>
<!-- ap2 -->
<g id="node6" class="node">
<title>ap2</title>
<path fill="#f2f4f7" stroke="#607080" d="M630.5,-190C630.5,-190 579.5,-190 579.5,-190 573.5,-190 567.5,-184 567.5,-178 567.5,-178 567.5,-162 567.5,-162 567.5,-156 573.5,-150 579.5,-150 579.5,-150 630.5,-150 630.5,-150 636.5,-150 642.5,-156 642.5,-162 642.5,-162 642.5,-178 642.5,-178 642.5,-184 636.5,-190 630.5,-190"/>
<text text-anchor="middle" x="605" y="-173.4" font-family="Noto Sans CJK SC" font-size="12.00">AP2 客厅</text>
<text text-anchor="middle" x="605" y="-160.4" font-family="Noto Sans CJK SC" font-size="12.00">PoE</text>
</g>
<!-- sw&#45;&gt;ap2 -->
<g id="edge5" class="edge">
<title>sw&#45;&gt;ap2</title>
<path fill="none" stroke="#657786" stroke-width="1.4" d="M720.03,-270.9C698.94,-261.05 674.48,-247.78 655,-232 643.22,-222.45 632.27,-209.75 623.64,-198.4"/>
<polygon fill="#657786" stroke="#657786" stroke-width="1.4" points="626.26,-196.06 617.52,-190.07 620.62,-200.2 626.26,-196.06"/>
</g>
<!-- netdev -->
<g id="node7" class="node">
<title>netdev</title>
<path fill="#f2f4f7" stroke="#607080" d="M770.5,-188C770.5,-188 679.5,-188 679.5,-188 673.5,-188 667.5,-182 667.5,-176 667.5,-176 667.5,-164 667.5,-164 667.5,-158 673.5,-152 679.5,-152 679.5,-152 770.5,-152 770.5,-152 776.5,-152 782.5,-158 782.5,-164 782.5,-164 782.5,-176 782.5,-176 782.5,-182 776.5,-188 770.5,-188"/>
<text text-anchor="middle" x="725" y="-166.9" font-family="Noto Sans CJK SC" font-size="12.00">交换机 / AP 管理</text>
</g>
<!-- sw&#45;&gt;netdev -->
<g id="edge6" class="edge">
<title>sw&#45;&gt;netdev</title>
<path fill="none" stroke="#657786" stroke-width="1.4" d="M760.25,-270.88C753.25,-251.05 742.26,-219.9 734.41,-197.66"/>
<polygon fill="#657786" stroke="#657786" stroke-width="1.4" points="737.68,-196.41 731.05,-188.14 731.08,-198.74 737.68,-196.41"/>
</g>
<!-- pc3090 -->
<g id="node8" class="node">
<title>pc3090</title>
<path fill="#eaf6ed" stroke="#607080" d="M121.5,-69C121.5,-69 28.5,-69 28.5,-69 22.5,-69 16.5,-63 16.5,-57 16.5,-57 16.5,-28 16.5,-28 16.5,-22 22.5,-16 28.5,-16 28.5,-16 121.5,-16 121.5,-16 127.5,-16 133.5,-22 133.5,-28 133.5,-28 133.5,-57 133.5,-57 133.5,-63 127.5,-69 121.5,-69"/>
<text text-anchor="middle" x="75" y="-52.4" font-family="Noto Sans CJK SC" font-size="12.00">Bedroom1</text>
<text text-anchor="middle" x="75" y="-39.4" font-family="Noto Sans CJK SC" font-size="12.00">RTX 3090 工作站</text>
<text text-anchor="middle" x="75" y="-26.4" font-family="Noto Sans CJK SC" font-size="12.00">2.5G有线</text>
</g>
<!-- sw&#45;&gt;pc3090 -->
<g id="edge7" class="edge">
<title>sw&#45;&gt;pc3090</title>
<path fill="none" stroke="#657786" stroke-width="1.4" d="M639.97,-280.75C527.16,-271.27 371.53,-254.7 314,-232 227.1,-197.72 146.25,-120.9 104.54,-76.64"/>
<polygon fill="#657786" stroke="#657786" stroke-width="1.4" points="107.07,-74.23 97.69,-69.3 101.95,-79 107.07,-74.23"/>
</g>
<!-- pc2 -->
<g id="node9" class="node">
<title>pc2</title>
<path fill="#eaf6ed" stroke="#607080" d="M273,-62.5C273,-62.5 171,-62.5 171,-62.5 165,-62.5 159,-56.5 159,-50.5 159,-50.5 159,-34.5 159,-34.5 159,-28.5 165,-22.5 171,-22.5 171,-22.5 273,-22.5 273,-22.5 279,-22.5 285,-28.5 285,-34.5 285,-34.5 285,-50.5 285,-50.5 285,-56.5 279,-62.5 273,-62.5"/>
<text text-anchor="middle" x="222" y="-45.9" font-family="Noto Sans CJK SC" font-size="12.00">Bedroom2 台式机</text>
<text text-anchor="middle" x="222" y="-32.9" font-family="Noto Sans CJK SC" font-size="12.00">有线</text>
</g>
<!-- sw&#45;&gt;pc2 -->
<g id="edge8" class="edge">
<title>sw&#45;&gt;pc2</title>
<path fill="none" stroke="#657786" stroke-width="1.4" d="M639.9,-280.31C581.35,-272.41 512.12,-258.06 454,-232 366.58,-192.81 284.6,-112.12 245.67,-70.16"/>
<polygon fill="#657786" stroke="#657786" stroke-width="1.4" points="248.03,-67.56 238.69,-62.55 242.87,-72.29 248.03,-67.56"/>
</g>
<!-- mac -->
<g id="node11" class="node">
<title>mac</title>
<path fill="#eee8fa" stroke="#607080" d="M910,-190C910,-190 820,-190 820,-190 814,-190 808,-184 808,-178 808,-178 808,-162 808,-162 808,-156 814,-150 820,-150 820,-150 910,-150 910,-150 916,-150 922,-156 922,-162 922,-162 922,-178 922,-178 922,-184 916,-190 910,-190"/>
<text text-anchor="middle" x="865" y="-173.4" font-family="Noto Sans CJK SC" font-size="12.00">Mac mini</text>
<text text-anchor="middle" x="865" y="-160.4" font-family="Noto Sans CJK SC" font-size="12.00">Home Assistant</text>
</g>
<!-- sw&#45;&gt;mac -->
<g id="edge11" class="edge">
<title>sw&#45;&gt;mac</title>
<path fill="none" stroke="#657786" stroke-width="1.4" d="M782.75,-270.88C799.03,-251.1 824.6,-220.05 842.91,-197.83"/>
<polygon fill="#657786" stroke="#657786" stroke-width="1.4" points="845.64,-200.02 849.29,-190.07 840.23,-195.57 845.64,-200.02"/>
</g>
<!-- zigbee -->
<g id="node12" class="node">
<title>zigbee</title>
<path fill="#eee8fa" stroke="#607080" d="M1064.5,-188C1064.5,-188 959.5,-188 959.5,-188 953.5,-188 947.5,-182 947.5,-176 947.5,-176 947.5,-164 947.5,-164 947.5,-158 953.5,-152 959.5,-152 959.5,-152 1064.5,-152 1064.5,-152 1070.5,-152 1076.5,-158 1076.5,-164 1076.5,-164 1076.5,-176 1076.5,-176 1076.5,-182 1070.5,-188 1064.5,-188"/>
<text text-anchor="middle" x="1012" y="-166.9" font-family="Noto Sans CJK SC" font-size="12.00">PoE Zigbee 协调器</text>
</g>
<!-- sw&#45;&gt;zigbee -->
<g id="edge12" class="edge">
<title>sw&#45;&gt;zigbee</title>
<path fill="none" stroke="#657786" stroke-width="1.4" d="M839.14,-270.97C869.71,-261.43 905.1,-248.38 935,-232 953.38,-221.93 971.86,-207.47 986.1,-195.16"/>
<polygon fill="#657786" stroke="#657786" stroke-width="1.4" points="988.79,-197.45 993.97,-188.21 984.16,-192.21 988.79,-197.45"/>
</g>
<!-- rs485 -->
<g id="node13" class="node">
<title>rs485</title>
<path fill="#fff2d8" stroke="#607080" d="M1206.5,-190C1206.5,-190 1113.5,-190 1113.5,-190 1107.5,-190 1101.5,-184 1101.5,-178 1101.5,-178 1101.5,-162 1101.5,-162 1101.5,-156 1107.5,-150 1113.5,-150 1113.5,-150 1206.5,-150 1206.5,-150 1212.5,-150 1218.5,-156 1218.5,-162 1218.5,-162 1218.5,-178 1218.5,-178 1218.5,-184 1212.5,-190 1206.5,-190"/>
<text text-anchor="middle" x="1160" y="-173.4" font-family="Noto Sans CJK SC" font-size="12.00">隔离型 RS&#45;485</text>
<text text-anchor="middle" x="1160" y="-160.4" font-family="Noto Sans CJK SC" font-size="12.00">转 Ethernet 网关</text>
</g>
<!-- sw&#45;&gt;rs485 -->
<g id="edge13" class="edge">
<title>sw&#45;&gt;rs485</title>
<path fill="none" stroke="#657786" stroke-width="1.4" d="M894.06,-282.71C955.33,-275.36 1028.47,-260.79 1089,-232 1106.67,-223.6 1123.42,-209.61 1136.21,-197.15"/>
<polygon fill="#657786" stroke="#657786" stroke-width="1.4" points="1138.7,-199.6 1143.26,-190.04 1133.73,-194.67 1138.7,-199.6"/>
</g>
<!-- esphome -->
<g id="node14" class="node">
<title>esphome</title>
<path fill="#eee8fa" stroke="#607080" d="M1380.5,-188C1380.5,-188 1255.5,-188 1255.5,-188 1249.5,-188 1243.5,-182 1243.5,-176 1243.5,-176 1243.5,-164 1243.5,-164 1243.5,-158 1249.5,-152 1255.5,-152 1255.5,-152 1380.5,-152 1380.5,-152 1386.5,-152 1392.5,-158 1392.5,-164 1392.5,-164 1392.5,-176 1392.5,-176 1392.5,-182 1386.5,-188 1380.5,-188"/>
<text text-anchor="middle" x="1318" y="-166.9" font-family="Noto Sans CJK SC" font-size="12.00">ESPHome / CO₂ / 计量</text>
</g>
<!-- sw&#45;&gt;esphome -->
<g id="edge14" class="edge">
<title>sw&#45;&gt;esphome</title>
<path fill="none" stroke="#657786" stroke-width="1.4" d="M894.27,-281.02C1009.98,-271.6 1171.44,-254.96 1231,-232 1253.28,-223.41 1275.27,-207.91 1291.57,-194.69"/>
<polygon fill="#657786" stroke="#657786" stroke-width="1.4" points="1294.11,-197.13 1299.54,-188.03 1289.63,-191.75 1294.11,-197.13"/>
</g>
<!-- doorcam -->
<g id="node18" class="node">
<title>doorcam</title>
<path fill="#fce8e6" stroke="#607080" d="M1540.5,-190C1540.5,-190 1429.5,-190 1429.5,-190 1423.5,-190 1417.5,-184 1417.5,-178 1417.5,-178 1417.5,-162 1417.5,-162 1417.5,-156 1423.5,-150 1429.5,-150 1429.5,-150 1540.5,-150 1540.5,-150 1546.5,-150 1552.5,-156 1552.5,-162 1552.5,-162 1552.5,-178 1552.5,-178 1552.5,-184 1546.5,-190 1540.5,-190"/>
<text text-anchor="middle" x="1485" y="-173.4" font-family="Noto Sans CJK SC" font-size="12.00">门口 PoE 摄像头</text>
<text text-anchor="middle" x="1485" y="-160.4" font-family="Noto Sans CJK SC" font-size="12.00">或可视门铃（可选）</text>
</g>
<!-- sw&#45;&gt;doorcam -->
<g id="edge18" class="edge">
<title>sw&#45;&gt;doorcam</title>
<path fill="none" stroke="#657786" stroke-width="1.4" d="M894.26,-286.85C1053.39,-281.47 1315.86,-267.41 1406,-232 1425.73,-224.25 1444.65,-209.97 1459.02,-197.18"/>
<polygon fill="#657786" stroke="#657786" stroke-width="1.4" points="1461.53,-199.63 1466.51,-190.28 1456.79,-194.48 1461.53,-199.63"/>
<text text-anchor="middle" x="1387.5" y="-243" font-family="Noto Sans CJK SC" font-size="10.00">PoE</text>
</g>
<!-- phones -->
<g id="node10" class="node">
<title>phones</title>
<path fill="#eaf6ed" stroke="#607080" d="M395.5,-60.5C395.5,-60.5 322.5,-60.5 322.5,-60.5 316.5,-60.5 310.5,-54.5 310.5,-48.5 310.5,-48.5 310.5,-36.5 310.5,-36.5 310.5,-30.5 316.5,-24.5 322.5,-24.5 322.5,-24.5 395.5,-24.5 395.5,-24.5 401.5,-24.5 407.5,-30.5 407.5,-36.5 407.5,-36.5 407.5,-48.5 407.5,-48.5 407.5,-54.5 401.5,-60.5 395.5,-60.5"/>
<text text-anchor="middle" x="359" y="-39.4" font-family="Noto Sans CJK SC" font-size="12.00">手机 / 笔记本</text>
</g>
<!-- ap1&#45;&gt;phones -->
<g id="edge9" class="edge">
<title>ap1&#45;&gt;phones</title>
<path fill="none" stroke="#657786" stroke-width="1.4" stroke-dasharray="5,2" d="M476.66,-149.98C467.22,-143.63 456.65,-136.52 447,-130 434.54,-121.58 430.3,-120.92 419,-111 404.36,-98.15 389.8,-81.88 378.69,-68.53"/>
<polygon fill="#657786" stroke="#657786" stroke-width="1.4" points="381.29,-66.18 372.25,-60.66 375.87,-70.61 381.29,-66.18"/>
<text text-anchor="middle" x="473" y="-122" font-family="Noto Sans CJK SC" font-size="10.00">Home SSID</text>
</g>
<!-- robot -->
<g id="node17" class="node">
<title>robot</title>
<path fill="#fff2d8" stroke="#607080" d="M565,-60.5C565,-60.5 445,-60.5 445,-60.5 439,-60.5 433,-54.5 433,-48.5 433,-48.5 433,-36.5 433,-36.5 433,-30.5 439,-24.5 445,-24.5 445,-24.5 565,-24.5 565,-24.5 571,-24.5 577,-30.5 577,-36.5 577,-36.5 577,-48.5 577,-48.5 577,-54.5 571,-60.5 565,-60.5"/>
<text text-anchor="middle" x="505" y="-39.4" font-family="Noto Sans CJK SC" font-size="12.00">扫地机 / 洗衣机 / 冰箱</text>
</g>
<!-- ap1&#45;&gt;robot -->
<g id="edge17" class="edge">
<title>ap1&#45;&gt;robot</title>
<path fill="none" stroke="#657786" stroke-width="1.4" stroke-dasharray="5,2" d="M505,-149.94C505,-128.89 505,-94.82 505,-70.91"/>
<polygon fill="#657786" stroke="#657786" stroke-width="1.4" points="508.5,-70.72 505,-60.72 501.5,-70.72 508.5,-70.72"/>
</g>
<!-- guests -->
<g id="node19" class="node">
<title>guests</title>
<path fill="#f2f4f7" stroke="#607080" d="M939.5,-62.5C939.5,-62.5 888.5,-62.5 888.5,-62.5 882.5,-62.5 876.5,-56.5 876.5,-50.5 876.5,-50.5 876.5,-34.5 876.5,-34.5 876.5,-28.5 882.5,-22.5 888.5,-22.5 888.5,-22.5 939.5,-22.5 939.5,-22.5 945.5,-22.5 951.5,-28.5 951.5,-34.5 951.5,-34.5 951.5,-50.5 951.5,-50.5 951.5,-56.5 945.5,-62.5 939.5,-62.5"/>
<text text-anchor="middle" x="914" y="-45.9" font-family="Noto Sans CJK SC" font-size="12.00">访客设备</text>
<text text-anchor="middle" x="914" y="-32.9" font-family="Noto Sans CJK SC" font-size="12.00">仅互联网</text>
</g>
<!-- ap1&#45;&gt;guests -->
<g id="edge19" class="edge">
<title>ap1&#45;&gt;guests</title>
<path fill="none" stroke="#657786" stroke-width="1.4" stroke-dasharray="5,2" d="M535.91,-149.87C542.05,-146.78 548.58,-143.96 555,-142 607.96,-125.86 623.9,-135.48 679,-130 684.17,-129.49 860.5,-113.59 865,-111 880.55,-102.05 892.52,-85.96 900.74,-71.73"/>
<polygon fill="#657786" stroke="#657786" stroke-width="1.4" points="903.92,-73.21 905.6,-62.75 897.76,-69.88 903.92,-73.21"/>
<text text-anchor="middle" x="806.5" y="-122" font-family="Noto Sans CJK SC" font-size="10.00">Guest</text>
</g>
<!-- ap2&#45;&gt;phones -->
<g id="edge10" class="edge">
<title>ap2&#45;&gt;phones</title>
<path fill="none" stroke="#657786" stroke-width="1.4" stroke-dasharray="5,2" d="M570.45,-149.97C565.3,-147.24 560.03,-144.51 555,-142 533.12,-131.07 528.63,-125.33 505,-119 467.92,-109.06 453.25,-128.33 419,-111 400.52,-101.65 385.14,-83.98 374.58,-69.06"/>
<polygon fill="#657786" stroke="#657786" stroke-width="1.4" points="377.42,-67.02 368.93,-60.68 371.62,-70.93 377.42,-67.02"/>
</g>
<!-- projector -->
<g id="node15" class="node">
<title>projector</title>
<path fill="#fff2d8" stroke="#607080" d="M710,-60.5C710,-60.5 614,-60.5 614,-60.5 608,-60.5 602,-54.5 602,-48.5 602,-48.5 602,-36.5 602,-36.5 602,-30.5 608,-24.5 614,-24.5 614,-24.5 710,-24.5 710,-24.5 716,-24.5 722,-30.5 722,-36.5 722,-36.5 722,-48.5 722,-48.5 722,-54.5 716,-60.5 710,-60.5"/>
<text text-anchor="middle" x="662" y="-39.4" font-family="Noto Sans CJK SC" font-size="12.00">投影 / 电视 / 家电</text>
</g>
<!-- ap2&#45;&gt;projector -->
<g id="edge15" class="edge">
<title>ap2&#45;&gt;projector</title>
<path fill="none" stroke="#657786" stroke-width="1.4" stroke-dasharray="5,2" d="M613.66,-149.94C623.35,-128.6 639.11,-93.89 649.99,-69.94"/>
<polygon fill="#657786" stroke="#657786" stroke-width="1.4" points="653.23,-71.27 654.18,-60.72 646.86,-68.38 653.23,-71.27"/>
<text text-anchor="middle" x="649.5" y="-122" font-family="Noto Sans CJK SC" font-size="10.00">Home&#45;IoT</text>
</g>
<!-- p2s -->
<g id="node16" class="node">
<title>p2s</title>
<path fill="#fff2d8" stroke="#607080" d="M839,-62.5C839,-62.5 759,-62.5 759,-62.5 753,-62.5 747,-56.5 747,-50.5 747,-50.5 747,-34.5 747,-34.5 747,-28.5 753,-22.5 759,-22.5 759,-22.5 839,-22.5 839,-22.5 845,-22.5 851,-28.5 851,-34.5 851,-34.5 851,-50.5 851,-50.5 851,-56.5 845,-62.5 839,-62.5"/>
<text text-anchor="middle" x="799" y="-45.9" font-family="Noto Sans CJK SC" font-size="12.00">Balcony1 P2S</text>
<text text-anchor="middle" x="799" y="-32.9" font-family="Noto Sans CJK SC" font-size="12.00">Wi&#45;Fi</text>
</g>
<!-- ap2&#45;&gt;p2s -->
<g id="edge16" class="edge">
<title>ap2&#45;&gt;p2s</title>
<path fill="none" stroke="#657786" stroke-width="1.4" stroke-dasharray="5,2" d="M635.93,-149.95C642.07,-146.85 648.6,-144.01 655,-142 677.62,-134.91 741.91,-144.06 761,-130 779.36,-116.48 788.99,-92.13 793.95,-72.71"/>
<polygon fill="#657786" stroke="#657786" stroke-width="1.4" points="797.4,-73.33 796.2,-62.8 790.57,-71.78 797.4,-73.33"/>
</g>
<!-- ap2&#45;&gt;guests -->
<g id="edge20" class="edge">
<title>ap2&#45;&gt;guests</title>
<path fill="none" stroke="#657786" stroke-width="1.4" stroke-dasharray="5,2" d="M635.63,-149.98C641.85,-146.84 648.48,-143.97 655,-142 745.31,-114.7 786.5,-163.34 865,-111 879.73,-101.18 891.56,-85.35 899.91,-71.49"/>
<polygon fill="#657786" stroke="#657786" stroke-width="1.4" points="902.98,-73.17 904.88,-62.75 896.9,-69.71 902.98,-73.17"/>
</g>
</g>
</svg>
