<?xml version="1.0" encoding="UTF-8" standalone="no"?>
<!DOCTYPE svg PUBLIC "-//W3C//DTD SVG 1.1//EN"
 "http://www.w3.org/Graphics/SVG/1.1/DTD/svg11.dtd">
<!-- Generated by graphviz version 2.42.4 (0)
 -->
<!-- Title: G Pages: 1 -->
<svg width="1101pt" height="977pt"
 viewBox="0.00 0.00 1101.00 977.00" xmlns="http://www.w3.org/2000/svg" xmlns:xlink="http://www.w3.org/1999/xlink">
<g id="graph0" class="graph" transform="scale(1 1) rotate(0) translate(18 959)">
<title>G</title>
<polygon fill="white" stroke="transparent" points="-18,18 -18,-959 1083,-959 1083,18 -18,18"/>
<text text-anchor="middle" x="532.5" y="-917.8" font-family="Noto Sans CJK SC" font-size="24.00">全屋硬件设备架构 V3.2</text>
<g id="clust1" class="cluster">
<title>cluster_store</title>
<path fill="white" stroke="#2474b5" d="M20,-558C20,-558 486,-558 486,-558 492,-558 498,-564 498,-570 498,-570 498,-870 498,-870 498,-876 492,-882 486,-882 486,-882 20,-882 20,-882 14,-882 8,-876 8,-870 8,-870 8,-570 8,-570 8,-564 14,-558 20,-558"/>
<text text-anchor="middle" x="253" y="-858.8" font-family="Noto Sans CJK SC" font-size="24.00">Storage room｜网络与自动化设备间</text>
</g>
<g id="clust2" class="cluster">
<title>cluster_b1</title>
<path fill="white" stroke="#2e8b57" d="M839,-8C839,-8 1045,-8 1045,-8 1051,-8 1057,-14 1057,-20 1057,-20 1057,-281 1057,-281 1057,-287 1051,-293 1045,-293 1045,-293 839,-293 839,-293 833,-293 827,-287 827,-281 827,-281 827,-20 827,-20 827,-14 833,-8 839,-8"/>
<text text-anchor="middle" x="942" y="-269.8" font-family="Noto Sans CJK SC" font-size="24.00">Bedroom1｜办公室</text>
</g>
<g id="clust3" class="cluster">
<title>cluster_bal1</title>
<path fill="white" stroke="#d28e1e" d="M831,-301C831,-301 1053,-301 1053,-301 1059,-301 1065,-307 1065,-313 1065,-313 1065,-582 1065,-582 1065,-588 1059,-594 1053,-594 1053,-594 831,-594 831,-594 825,-594 819,-588 819,-582 819,-582 819,-313 819,-313 819,-307 825,-301 831,-301"/>
<text text-anchor="middle" x="942" y="-570.8" font-family="Noto Sans CJK SC" font-size="24.00">Balcony1｜3D打印区</text>
</g>
<g id="clust4" class="cluster">
<title>cluster_home</title>
<path fill="white" stroke="#6f4eaa" d="M613,-602C613,-602 1007.5,-602 1007.5,-602 1013.5,-602 1019.5,-608 1019.5,-614 1019.5,-614 1019.5,-887 1019.5,-887 1019.5,-893 1013.5,-899 1007.5,-899 1007.5,-899 613,-899 613,-899 607,-899 601,-893 601,-887 601,-887 601,-614 601,-614 601,-608 607,-602 613,-602"/>
<text text-anchor="middle" x="810.25" y="-875.8" font-family="Noto Sans CJK SC" font-size="24.00">全屋现场设备</text>
</g>
<!-- rack -->
<g id="node1" class="node">
<title>rack</title>
<path fill="#ddeaf7" stroke="#607080" d="M124,-738C124,-738 28,-738 28,-738 22,-738 16,-732 16,-726 16,-726 16,-714 16,-714 16,-708 22,-702 28,-702 28,-702 124,-702 124,-702 130,-702 136,-708 136,-714 136,-714 136,-726 136,-726 136,-732 130,-738 124,-738"/>
<text text-anchor="middle" x="76" y="-716.9" font-family="Noto Sans CJK SC" font-size="12.00">9U/12U 通风机柜</text>
</g>
<!-- ont -->
<g id="node2" class="node">
<title>ont</title>
<path fill="#e8f2fc" stroke="#607080" d="M286,-602C286,-602 213,-602 213,-602 207,-602 201,-596 201,-590 201,-590 201,-578 201,-578 201,-572 207,-566 213,-566 213,-566 286,-566 286,-566 292,-566 298,-572 298,-578 298,-578 298,-590 298,-590 298,-596 292,-602 286,-602"/>
<text text-anchor="middle" x="249.5" y="-580.9" font-family="Noto Sans CJK SC" font-size="12.00">光猫 / 路由器</text>
</g>
<!-- rack&#45;&gt;ont -->
<g id="edge1" class="edge">
<title>rack&#45;&gt;ont</title>
<path fill="none" stroke="#657786" stroke-width="1.3" d="M92.89,-701.99C112.87,-680.06 148.95,-642.76 185,-617 189.86,-613.53 195.13,-610.2 200.48,-607.08"/>
<polygon fill="#657786" stroke="#657786" stroke-width="1.3" points="202.5,-609.96 209.53,-602.04 199.09,-603.85 202.5,-609.96"/>
</g>
<!-- sw -->
<g id="node3" class="node">
<title>sw</title>
<path fill="#e8f2fc" stroke="#607080" d="M299,-671C299,-671 200,-671 200,-671 194,-671 188,-665 188,-659 188,-659 188,-643 188,-643 188,-637 194,-631 200,-631 200,-631 299,-631 299,-631 305,-631 311,-637 311,-643 311,-643 311,-659 311,-659 311,-665 305,-671 299,-671"/>
<text text-anchor="middle" x="249.5" y="-654.4" font-family="Noto Sans CJK SC" font-size="12.00">16口 PoE+ 交换机</text>
<text text-anchor="middle" x="249.5" y="-641.4" font-family="Noto Sans CJK SC" font-size="12.00">24口被动配线架</text>
</g>
<!-- rack&#45;&gt;sw -->
<g id="edge2" class="edge">
<title>rack&#45;&gt;sw</title>
<path fill="none" stroke="#657786" stroke-width="1.3" d="M122.06,-701.87C142.55,-693.63 167.07,-683.76 189.04,-674.92"/>
<polygon fill="#657786" stroke="#657786" stroke-width="1.3" points="190.64,-678.05 198.61,-671.07 188.03,-671.56 190.64,-678.05"/>
</g>
<!-- mac -->
<g id="node4" class="node">
<title>mac</title>
<path fill="#eee8fa" stroke="#607080" d="M294.5,-740C294.5,-740 204.5,-740 204.5,-740 198.5,-740 192.5,-734 192.5,-728 192.5,-728 192.5,-712 192.5,-712 192.5,-706 198.5,-700 204.5,-700 204.5,-700 294.5,-700 294.5,-700 300.5,-700 306.5,-706 306.5,-712 306.5,-712 306.5,-728 306.5,-728 306.5,-734 300.5,-740 294.5,-740"/>
<text text-anchor="middle" x="249.5" y="-723.4" font-family="Noto Sans CJK SC" font-size="12.00">Mac mini</text>
<text text-anchor="middle" x="249.5" y="-710.4" font-family="Noto Sans CJK SC" font-size="12.00">Home Assistant</text>
</g>
<!-- rack&#45;&gt;mac -->
<g id="edge3" class="edge">
<title>rack&#45;&gt;mac</title>
<path fill="none" stroke="#657786" stroke-width="1.3" d="M136.02,-720C150.82,-720 166.8,-720 181.94,-720"/>
<polygon fill="#657786" stroke="#657786" stroke-width="1.3" points="182.26,-723.5 192.26,-720 182.26,-716.5 182.26,-723.5"/>
</g>
<!-- gateway -->
<g id="node5" class="node">
<title>gateway</title>
<path fill="#fff2d8" stroke="#607080" d="M478,-779C478,-779 375,-779 375,-779 369,-779 363,-773 363,-767 363,-767 363,-751 363,-751 363,-745 369,-739 375,-739 375,-739 478,-739 478,-739 484,-739 490,-745 490,-751 490,-751 490,-767 490,-767 490,-773 484,-779 478,-779"/>
<text text-anchor="middle" x="426.5" y="-762.4" font-family="Noto Sans CJK SC" font-size="12.00">2/4路隔离型</text>
<text text-anchor="middle" x="426.5" y="-749.4" font-family="Noto Sans CJK SC" font-size="12.00">RS&#45;485转Ethernet</text>
</g>
<!-- rack&#45;&gt;gateway -->
<g id="edge4" class="edge">
<title>rack&#45;&gt;gateway</title>
<path fill="none" stroke="#657786" stroke-width="1.3" d="M122.5,-738.06C141.5,-744.73 164,-751.5 185,-755 240.65,-764.27 304.53,-764.87 352.47,-763.37"/>
<polygon fill="#657786" stroke="#657786" stroke-width="1.3" points="352.88,-766.86 362.75,-763.01 352.64,-759.86 352.88,-766.86"/>
</g>
<!-- ups -->
<g id="node6" class="node">
<title>ups</title>
<path fill="#f2f4f7" stroke="#607080" d="M302,-840C302,-840 197,-840 197,-840 191,-840 185,-834 185,-828 185,-828 185,-812 185,-812 185,-806 191,-800 197,-800 197,-800 302,-800 302,-800 308,-800 314,-806 314,-812 314,-812 314,-828 314,-828 314,-834 308,-840 302,-840"/>
<text text-anchor="middle" x="249.5" y="-823.4" font-family="Noto Sans CJK SC" font-size="12.00">1000–1500VA UPS</text>
<text text-anchor="middle" x="249.5" y="-810.4" font-family="Noto Sans CJK SC" font-size="12.00">仅带网络和服务器</text>
</g>
<!-- rack&#45;&gt;ups -->
<g id="edge5" class="edge">
<title>rack&#45;&gt;ups</title>
<path fill="none" stroke="#657786" stroke-width="1.3" d="M100.63,-738.1C116.87,-750.14 139.18,-765.9 160,-778 170.45,-784.08 181.93,-790.02 193.05,-795.43"/>
<polygon fill="#657786" stroke="#657786" stroke-width="1.3" points="191.74,-798.68 202.27,-799.84 194.76,-792.37 191.74,-798.68"/>
</g>
<!-- sw&#45;&gt;gateway -->
<g id="edge9" class="edge">
<title>sw&#45;&gt;gateway</title>
<path fill="none" stroke="#657786" stroke-width="1.3" d="M293.68,-671.2C300.86,-675.54 307.94,-680.5 314,-686 327.97,-698.67 323.45,-709 338,-721 344.02,-725.96 350.79,-730.39 357.82,-734.3"/>
<polygon fill="#657786" stroke="#657786" stroke-width="1.3" points="356.35,-737.49 366.84,-738.99 359.58,-731.27 356.35,-737.49"/>
</g>
<!-- pc -->
<g id="node7" class="node">
<title>pc</title>
<path fill="#eaf6ed" stroke="#607080" d="M988,-52C988,-52 895,-52 895,-52 889,-52 883,-46 883,-40 883,-40 883,-28 883,-28 883,-22 889,-16 895,-16 895,-16 988,-16 988,-16 994,-16 1000,-22 1000,-28 1000,-28 1000,-40 1000,-40 1000,-46 994,-52 988,-52"/>
<text text-anchor="middle" x="941.5" y="-30.9" font-family="Noto Sans CJK SC" font-size="12.00">RTX 3090 工作站</text>
</g>
<!-- sw&#45;&gt;pc -->
<g id="edge6" class="edge">
<title>sw&#45;&gt;pc</title>
<path fill="none" stroke="#657786" stroke-width="1.3" d="M292.74,-630.97C300.1,-626.77 307.48,-622.06 314,-617 576.2,-413.58 535.5,-239.5 819,-67 835.3,-57.08 854.62,-50.09 872.99,-45.18"/>
<polygon fill="#657786" stroke="#657786" stroke-width="1.3" points="873.94,-48.55 882.79,-42.73 872.24,-41.76 873.94,-48.55"/>
<text text-anchor="middle" x="549.5" y="-402" font-family="Noto Sans CJK SC" font-size="10.00">2.5G</text>
</g>
<!-- aps -->
<g id="node15" class="node">
<title>aps</title>
<path fill="#ddeaf7" stroke="#607080" d="M720.5,-857C720.5,-857 635.5,-857 635.5,-857 629.5,-857 623.5,-851 623.5,-845 623.5,-845 623.5,-829 623.5,-829 623.5,-823 629.5,-817 635.5,-817 635.5,-817 720.5,-817 720.5,-817 726.5,-817 732.5,-823 732.5,-829 732.5,-829 732.5,-845 732.5,-845 732.5,-851 726.5,-857 720.5,-857"/>
<text text-anchor="middle" x="678" y="-840.4" font-family="Noto Sans CJK SC" font-size="12.00">2×有线PoE AP</text>
<text text-anchor="middle" x="678" y="-827.4" font-family="Noto Sans CJK SC" font-size="12.00">+ 1个备用点位</text>
</g>
<!-- sw&#45;&gt;aps -->
<g id="edge7" class="edge">
<title>sw&#45;&gt;aps</title>
<path fill="none" stroke="#657786" stroke-width="1.3" d="M295.83,-671.17C302.45,-675.43 308.79,-680.36 314,-686 349.79,-724.69 320.74,-762.5 363,-794 435.6,-848.11 544.6,-850.42 613.21,-845.17"/>
<polygon fill="#657786" stroke="#657786" stroke-width="1.3" points="613.78,-848.64 623.45,-844.31 613.19,-841.66 613.78,-848.64"/>
<text text-anchor="middle" x="426.5" y="-845" font-family="Noto Sans CJK SC" font-size="10.00">PoE</text>
</g>
<!-- zb -->
<g id="node16" class="node">
<title>zb</title>
<path fill="#eee8fa" stroke="#607080" d="M718,-719C718,-719 638,-719 638,-719 632,-719 626,-713 626,-707 626,-707 626,-691 626,-691 626,-685 632,-679 638,-679 638,-679 718,-679 718,-679 724,-679 730,-685 730,-691 730,-691 730,-707 730,-707 730,-713 724,-719 718,-719"/>
<text text-anchor="middle" x="678" y="-702.4" font-family="Noto Sans CJK SC" font-size="12.00">中央走廊 PoE</text>
<text text-anchor="middle" x="678" y="-689.4" font-family="Noto Sans CJK SC" font-size="12.00">Zigbee 协调器</text>
</g>
<!-- sw&#45;&gt;zb -->
<g id="edge8" class="edge">
<title>sw&#45;&gt;zb</title>
<path fill="none" stroke="#657786" stroke-width="1.3" d="M311.09,-663.59C320.09,-665.22 329.27,-666.76 338,-668 434.7,-681.78 547.83,-690.69 615.87,-695.27"/>
<polygon fill="#657786" stroke="#657786" stroke-width="1.3" points="615.78,-698.77 625.99,-695.94 616.24,-691.79 615.78,-698.77"/>
<text text-anchor="middle" x="426.5" y="-688" font-family="Noto Sans CJK SC" font-size="10.00">PoE</text>
</g>
<!-- av -->
<g id="node20" class="node">
<title>av</title>
<path fill="#e8f2fc" stroke="#607080" d="M726,-650C726,-650 630,-650 630,-650 624,-650 618,-644 618,-638 618,-638 618,-622 618,-622 618,-616 624,-610 630,-610 630,-610 726,-610 726,-610 732,-610 738,-616 738,-622 738,-622 738,-638 738,-638 738,-644 732,-650 726,-650"/>
<text text-anchor="middle" x="678" y="-633.4" font-family="Noto Sans CJK SC" font-size="12.00">投影 + 影音柜</text>
<text text-anchor="middle" x="678" y="-620.4" font-family="Noto Sans CJK SC" font-size="12.00">Cat6 + HDMI空管</text>
</g>
<!-- sw&#45;&gt;av -->
<g id="edge17" class="edge">
<title>sw&#45;&gt;av</title>
<path fill="none" stroke="#657786" stroke-width="1.3" d="M311.15,-648.01C389.53,-644.15 525.65,-637.45 607.92,-633.4"/>
<polygon fill="#657786" stroke="#657786" stroke-width="1.3" points="608.11,-636.9 617.93,-632.91 607.77,-629.9 608.11,-636.9"/>
<text text-anchor="middle" x="426.5" y="-648" font-family="Noto Sans CJK SC" font-size="10.00">Ethernet</text>
</g>
<!-- hvac -->
<g id="node17" class="node">
<title>hvac</title>
<path fill="#fff2d8" stroke="#607080" d="M735,-788C735,-788 621,-788 621,-788 615,-788 609,-782 609,-776 609,-776 609,-760 609,-760 609,-754 615,-748 621,-748 621,-748 735,-748 735,-748 741,-748 747,-754 747,-760 747,-760 747,-776 747,-776 747,-782 741,-788 735,-788"/>
<text text-anchor="middle" x="678" y="-771.4" font-family="Noto Sans CJK SC" font-size="12.00">日立 Modbus 转换器</text>
<text text-anchor="middle" x="678" y="-758.4" font-family="Noto Sans CJK SC" font-size="12.00">格恩 Modbus RTU</text>
</g>
<!-- gateway&#45;&gt;hvac -->
<g id="edge10" class="edge">
<title>gateway&#45;&gt;hvac</title>
<path fill="none" stroke="#657786" stroke-width="1.3" d="M490.14,-761.26C522.98,-762.44 563.54,-763.91 598.47,-765.17"/>
<polygon fill="#657786" stroke="#657786" stroke-width="1.3" points="598.51,-768.67 608.63,-765.53 598.77,-761.68 598.51,-768.67"/>
<text text-anchor="middle" x="549.5" y="-767" font-family="Noto Sans CJK SC" font-size="10.00">独立RS&#45;485通道</text>
</g>
<!-- desk -->
<g id="node8" class="node">
<title>desk</title>
<path fill="#eaf6ed" stroke="#607080" d="M995.5,-186C995.5,-186 887.5,-186 887.5,-186 881.5,-186 875.5,-180 875.5,-174 875.5,-174 875.5,-158 875.5,-158 875.5,-152 881.5,-146 887.5,-146 887.5,-146 995.5,-146 995.5,-146 1001.5,-146 1007.5,-152 1007.5,-158 1007.5,-158 1007.5,-174 1007.5,-174 1007.5,-180 1001.5,-186 995.5,-186"/>
<text text-anchor="middle" x="941.5" y="-169.4" font-family="Noto Sans CJK SC" font-size="12.00">2×Cat6A</text>
<text text-anchor="middle" x="941.5" y="-156.4" font-family="Noto Sans CJK SC" font-size="12.00">显示器 / 外设 / 电源</text>
</g>
<!-- b1sens -->
<g id="node9" class="node">
<title>b1sens</title>
<path fill="#eaf6ed" stroke="#607080" d="M996,-251C996,-251 887,-251 887,-251 881,-251 875,-245 875,-239 875,-239 875,-227 875,-227 875,-221 881,-215 887,-215 887,-215 996,-215 996,-215 1002,-215 1008,-221 1008,-227 1008,-227 1008,-239 1008,-239 1008,-245 1002,-251 996,-251"/>
<text text-anchor="middle" x="941.5" y="-229.9" font-family="Noto Sans CJK SC" font-size="12.00">温湿度 + CO₂ + 存在</text>
</g>
<!-- b1light -->
<g id="node10" class="node">
<title>b1light</title>
<path fill="#eee8fa" stroke="#607080" d="M992.5,-117C992.5,-117 890.5,-117 890.5,-117 884.5,-117 878.5,-111 878.5,-105 878.5,-105 878.5,-93 878.5,-93 878.5,-87 884.5,-81 890.5,-81 890.5,-81 992.5,-81 992.5,-81 998.5,-81 1004.5,-87 1004.5,-93 1004.5,-93 1004.5,-105 1004.5,-105 1004.5,-111 998.5,-117 992.5,-117"/>
<text text-anchor="middle" x="941.5" y="-95.9" font-family="Noto Sans CJK SC" font-size="12.00">Zigbee 灯光 / 窗帘</text>
</g>
<!-- p2s -->
<g id="node11" class="node">
<title>p2s</title>
<path fill="#fff2d8" stroke="#607080" d="M976,-552C976,-552 907,-552 907,-552 901,-552 895,-546 895,-540 895,-540 895,-524 895,-524 895,-518 901,-512 907,-512 907,-512 976,-512 976,-512 982,-512 988,-518 988,-524 988,-524 988,-540 988,-540 988,-546 982,-552 976,-552"/>
<text text-anchor="middle" x="941.5" y="-535.4" font-family="Noto Sans CJK SC" font-size="12.00">Bambu P2S</text>
<text text-anchor="middle" x="941.5" y="-522.4" font-family="Noto Sans CJK SC" font-size="12.00">Wi&#45;Fi</text>
</g>
<!-- exhaust -->
<g id="node12" class="node">
<title>exhaust</title>
<path fill="#fff2d8" stroke="#607080" d="M1015,-483C1015,-483 868,-483 868,-483 862,-483 856,-477 856,-471 856,-471 856,-455 856,-455 856,-449 862,-443 868,-443 868,-443 1015,-443 1015,-443 1021,-443 1027,-449 1027,-455 1027,-455 1027,-471 1027,-471 1027,-477 1021,-483 1015,-483"/>
<text text-anchor="middle" x="941.5" y="-466.4" font-family="Noto Sans CJK SC" font-size="12.00">短距离局部外排</text>
<text text-anchor="middle" x="941.5" y="-453.4" font-family="Noto Sans CJK SC" font-size="12.00">实体开关 + 可选智能继电器</text>
</g>
<!-- balsens -->
<g id="node13" class="node">
<title>balsens</title>
<path fill="#fff2d8" stroke="#607080" d="M995.5,-414C995.5,-414 887.5,-414 887.5,-414 881.5,-414 875.5,-408 875.5,-402 875.5,-402 875.5,-386 875.5,-386 875.5,-380 881.5,-374 887.5,-374 887.5,-374 995.5,-374 995.5,-374 1001.5,-374 1007.5,-380 1007.5,-386 1007.5,-386 1007.5,-402 1007.5,-402 1007.5,-408 1001.5,-414 995.5,-414"/>
<text text-anchor="middle" x="941.5" y="-397.4" font-family="Noto Sans CJK SC" font-size="12.00">温湿度 + 独立烟雾</text>
<text text-anchor="middle" x="941.5" y="-384.4" font-family="Noto Sans CJK SC" font-size="12.00">门磁 + 可选VOC/PM</text>
</g>
<!-- balnet -->
<g id="node14" class="node">
<title>balnet</title>
<path fill="#f2f4f7" stroke="#607080" d="M982,-345C982,-345 901,-345 901,-345 895,-345 889,-339 889,-333 889,-333 889,-321 889,-321 889,-315 895,-309 901,-309 901,-309 982,-309 982,-309 988,-309 994,-315 994,-321 994,-321 994,-333 994,-333 994,-339 988,-345 982,-345"/>
<text text-anchor="middle" x="941.5" y="-323.9" font-family="Noto Sans CJK SC" font-size="12.00">1×Cat6A 备用</text>
</g>
<!-- aps&#45;&gt;p2s -->
<g id="edge11" class="edge">
<title>aps&#45;&gt;p2s</title>
<path fill="none" stroke="#657786" stroke-width="1.3" stroke-dasharray="5,2" d="M730.42,-816.91C736.56,-812.97 742.3,-808.36 747,-803 811.52,-729.47 755.02,-669.01 819,-595 836.55,-574.7 862.26,-560.05 885.52,-550.01"/>
<polygon fill="#657786" stroke="#657786" stroke-width="1.3" points="887.05,-553.17 894.97,-546.13 884.39,-546.7 887.05,-553.17"/>
<text text-anchor="middle" x="787" y="-767" font-family="Noto Sans CJK SC" font-size="10.00">Wi&#45;Fi</text>
</g>
<!-- zb&#45;&gt;b1sens -->
<g id="edge12" class="edge">
<title>zb&#45;&gt;b1sens</title>
<path fill="none" stroke="#657786" stroke-width="1.3" stroke-dasharray="5,2" d="M730.13,-680.16C736.55,-676 742.45,-670.99 747,-665 766.66,-639.13 796.85,-409.9 803,-378 810.19,-340.68 796.1,-324.33 819,-294 831.77,-277.09 850.54,-264.53 869.52,-255.36"/>
<polygon fill="#657786" stroke="#657786" stroke-width="1.3" points="871.17,-258.45 878.83,-251.13 868.27,-252.08 871.17,-258.45"/>
<text text-anchor="middle" x="787" y="-572" font-family="Noto Sans CJK SC" font-size="10.00">Zigbee</text>
</g>
<!-- zb&#45;&gt;b1light -->
<g id="edge13" class="edge">
<title>zb&#45;&gt;b1light</title>
<path fill="none" stroke="#657786" stroke-width="1.3" stroke-dasharray="5,2" d="M730.08,-681.04C736.67,-676.73 742.64,-671.45 747,-665 783.24,-611.44 762.05,-439.04 771,-375 778.62,-320.49 781.47,-172.26 819,-132 831.95,-118.11 850.1,-109.84 868.44,-104.99"/>
<polygon fill="#657786" stroke="#657786" stroke-width="1.3" points="869.37,-108.37 878.31,-102.69 867.78,-101.55 869.37,-108.37"/>
</g>
<!-- lighting -->
<g id="node18" class="node">
<title>lighting</title>
<path fill="#eee8fa" stroke="#607080" d="M999.5,-650C999.5,-650 883.5,-650 883.5,-650 877.5,-650 871.5,-644 871.5,-638 871.5,-638 871.5,-626 871.5,-626 871.5,-620 877.5,-614 883.5,-614 883.5,-614 999.5,-614 999.5,-614 1005.5,-614 1011.5,-620 1011.5,-626 1011.5,-626 1011.5,-638 1011.5,-638 1011.5,-644 1005.5,-650 999.5,-650"/>
<text text-anchor="middle" x="941.5" y="-628.9" font-family="Noto Sans CJK SC" font-size="12.00">Zigbee 实体灯光开关</text>
</g>
<!-- zb&#45;&gt;lighting -->
<g id="edge14" class="edge">
<title>zb&#45;&gt;lighting</title>
<path fill="none" stroke="#657786" stroke-width="1.3" stroke-dasharray="5,2" d="M730.04,-685.92C767.41,-676.35 818.83,-663.17 861.48,-652.25"/>
<polygon fill="#657786" stroke="#657786" stroke-width="1.3" points="862.46,-655.61 871.28,-649.73 860.73,-648.83 862.46,-655.61"/>
</g>
<!-- curtains -->
<g id="node19" class="node">
<title>curtains</title>
<path fill="#eee8fa" stroke="#607080" d="M987.5,-719C987.5,-719 895.5,-719 895.5,-719 889.5,-719 883.5,-713 883.5,-707 883.5,-707 883.5,-691 883.5,-691 883.5,-685 889.5,-679 895.5,-679 895.5,-679 987.5,-679 987.5,-679 993.5,-679 999.5,-685 999.5,-691 999.5,-691 999.5,-707 999.5,-707 999.5,-713 993.5,-719 987.5,-719"/>
<text text-anchor="middle" x="941.5" y="-702.4" font-family="Noto Sans CJK SC" font-size="12.00">Zigbee 窗帘电机</text>
<text text-anchor="middle" x="941.5" y="-689.4" font-family="Noto Sans CJK SC" font-size="12.00">保留墙面按键</text>
</g>
<!-- zb&#45;&gt;curtains -->
<g id="edge15" class="edge">
<title>zb&#45;&gt;curtains</title>
<path fill="none" stroke="#657786" stroke-width="1.3" stroke-dasharray="5,2" d="M730.04,-699C770.86,-699 828.43,-699 873.05,-699"/>
<polygon fill="#657786" stroke="#657786" stroke-width="1.3" points="873.22,-702.5 883.22,-699 873.22,-695.5 873.22,-702.5"/>
</g>
<!-- water -->
<g id="node21" class="node">
<title>water</title>
<path fill="#e5f1fb" stroke="#607080" d="M981,-788C981,-788 902,-788 902,-788 896,-788 890,-782 890,-776 890,-776 890,-760 890,-760 890,-754 896,-748 902,-748 902,-748 981,-748 981,-748 987,-748 993,-754 993,-760 993,-760 993,-776 993,-776 993,-782 987,-788 981,-788"/>
<text text-anchor="middle" x="941.5" y="-771.4" font-family="Noto Sans CJK SC" font-size="12.00">水浸 + 总水阀</text>
<text text-anchor="middle" x="941.5" y="-758.4" font-family="Noto Sans CJK SC" font-size="12.00">软水/净水监测</text>
</g>
<!-- zb&#45;&gt;water -->
<g id="edge16" class="edge">
<title>zb&#45;&gt;water</title>
<path fill="none" stroke="#657786" stroke-width="1.3" stroke-dasharray="5,2" d="M730.04,-712.47C772.97,-723.79 834.43,-740.01 879.86,-752"/>
<polygon fill="#657786" stroke="#657786" stroke-width="1.3" points="879.03,-755.4 889.59,-754.57 880.81,-748.63 879.03,-755.4"/>
</g>
</g>
</svg>
