<?xml version="1.0" encoding="UTF-8" standalone="no"?>
<!DOCTYPE svg PUBLIC "-//W3C//DTD SVG 1.1//EN"
 "http://www.w3.org/Graphics/SVG/1.1/DTD/svg11.dtd">
<!-- Generated by graphviz version 2.42.4 (0)
 -->
<!-- Title: G Pages: 1 -->
<svg width="1153pt" height="321pt"
 viewBox="0.00 0.00 1153.00 321.00" xmlns="http://www.w3.org/2000/svg" xmlns:xlink="http://www.w3.org/1999/xlink">
<g id="graph0" class="graph" transform="scale(1 1) rotate(0) translate(18 303)">
<title>G</title>
<polygon fill="white" stroke="transparent" points="-18,18 -18,-303 1135,-303 1135,18 -18,18"/>
<text text-anchor="middle" x="558.5" y="-261.8" font-family="Noto Sans CJK SC" font-size="24.00">跨系统交互架构 V3.2</text>
<!-- triggers -->
<g id="node1" class="node">
<title>triggers</title>
<path fill="#eee8fa" stroke="#6f4eaa" stroke-width="2" d="M533.5,-251C533.5,-251 359.5,-251 359.5,-251 353.5,-251 347.5,-245 347.5,-239 347.5,-239 347.5,-210 347.5,-210 347.5,-204 353.5,-198 359.5,-198 359.5,-198 533.5,-198 533.5,-198 539.5,-198 545.5,-204 545.5,-210 545.5,-210 545.5,-239 545.5,-239 545.5,-245 539.5,-251 533.5,-251"/>
<text text-anchor="middle" x="446.5" y="-234.4" font-family="Noto Sans CJK SC" font-size="12.00">触发与状态</text>
<text text-anchor="middle" x="446.5" y="-221.4" font-family="Noto Sans CJK SC" font-size="12.00">存在 / 温湿度 / CO₂ / 门磁 / 水浸</text>
<text text-anchor="middle" x="446.5" y="-208.4" font-family="Noto Sans CJK SC" font-size="12.00">Modbus状态 / 用户按键 / 时间</text>
</g>
<!-- ha -->
<g id="node2" class="node">
<title>ha</title>
<path fill="#ddeaf7" stroke="#2474b5" stroke-width="2" d="M544,-157C544,-157 349,-157 349,-157 343,-157 337,-151 337,-145 337,-145 337,-129 337,-129 337,-123 343,-117 349,-117 349,-117 544,-117 544,-117 550,-117 556,-123 556,-129 556,-129 556,-145 556,-145 556,-151 550,-157 544,-157"/>
<text text-anchor="middle" x="446.5" y="-140.4" font-family="Noto Sans CJK SC" font-size="12.00">Home Assistant 编排层</text>
<text text-anchor="middle" x="446.5" y="-127.4" font-family="Noto Sans CJK SC" font-size="12.00">条件判断、滞回、延时、权限、日志</text>
</g>
<!-- triggers&#45;&gt;ha -->
<g id="edge1" class="edge">
<title>triggers&#45;&gt;ha</title>
<path fill="none" stroke="#657786" stroke-width="1.3" d="M446.5,-197.85C446.5,-188.24 446.5,-177.25 446.5,-167.33"/>
<polygon fill="#657786" stroke="#657786" stroke-width="1.3" points="450,-167.11 446.5,-157.11 443,-167.11 450,-167.11"/>
</g>
<!-- office -->
<g id="node4" class="node">
<title>office</title>
<path fill="#eaf6ed" stroke="#607080" d="M769,-59.5C769,-59.5 670,-59.5 670,-59.5 664,-59.5 658,-53.5 658,-47.5 658,-47.5 658,-18.5 658,-18.5 658,-12.5 664,-6.5 670,-6.5 670,-6.5 769,-6.5 769,-6.5 775,-6.5 781,-12.5 781,-18.5 781,-18.5 781,-47.5 781,-47.5 781,-53.5 775,-59.5 769,-59.5"/>
<text text-anchor="middle" x="719.5" y="-42.9" font-family="Noto Sans CJK SC" font-size="12.00">办公室舒适</text>
<text text-anchor="middle" x="719.5" y="-29.9" font-family="Noto Sans CJK SC" font-size="12.00">调整日立设定温度</text>
<text text-anchor="middle" x="719.5" y="-16.9" font-family="Noto Sans CJK SC" font-size="12.00">CO₂过高提醒</text>
</g>
<!-- ha&#45;&gt;office -->
<g id="edge2" class="edge">
<title>ha&#45;&gt;office</title>
<path fill="none" stroke="#657786" stroke-width="1.3" d="M503.93,-116.98C543.9,-103.47 598.27,-84.49 645.5,-66 647.62,-65.17 649.77,-64.32 651.93,-63.45"/>
<polygon fill="#657786" stroke="#657786" stroke-width="1.3" points="653.56,-66.56 661.49,-59.54 650.91,-60.08 653.56,-66.56"/>
</g>
<!-- humidity -->
<g id="node5" class="node">
<title>humidity</title>
<path fill="#e9f4f7" stroke="#607080" d="M277,-66C277,-66 184,-66 184,-66 178,-66 172,-60 172,-54 172,-54 172,-12 172,-12 172,-6 178,0 184,0 184,0 277,0 277,0 283,0 289,-6 289,-12 289,-12 289,-54 289,-54 289,-60 283,-66 277,-66"/>
<text text-anchor="middle" x="230.5" y="-49.4" font-family="Noto Sans CJK SC" font-size="12.00">中央加湿</text>
<text text-anchor="middle" x="230.5" y="-36.4" font-family="Noto Sans CJK SC" font-size="12.00">白天客厅+办公室</text>
<text text-anchor="middle" x="230.5" y="-23.4" font-family="Noto Sans CJK SC" font-size="12.00">夜间有人卧室</text>
<text text-anchor="middle" x="230.5" y="-10.4" font-family="Noto Sans CJK SC" font-size="12.00">开窗暂停</text>
</g>
<!-- ha&#45;&gt;humidity -->
<g id="edge3" class="edge">
<title>ha&#45;&gt;humidity</title>
<path fill="none" stroke="#657786" stroke-width="1.3" d="M406.13,-116.93C375.86,-102.64 333.74,-82.75 298.34,-66.03"/>
<polygon fill="#657786" stroke="#657786" stroke-width="1.3" points="299.56,-62.74 289.02,-61.63 296.57,-69.07 299.56,-62.74"/>
</g>
<!-- bathroom -->
<g id="node6" class="node">
<title>bathroom</title>
<path fill="#e9f4f7" stroke="#607080" d="M1105,-66C1105,-66 1018,-66 1018,-66 1012,-66 1006,-60 1006,-54 1006,-54 1006,-12 1006,-12 1006,-6 1012,0 1018,0 1018,0 1105,0 1105,0 1111,0 1117,-6 1117,-12 1117,-12 1117,-54 1117,-54 1117,-60 1111,-66 1105,-66"/>
<text text-anchor="middle" x="1061.5" y="-49.4" font-family="Noto Sans CJK SC" font-size="12.00">卫生间</text>
<text text-anchor="middle" x="1061.5" y="-36.4" font-family="Noto Sans CJK SC" font-size="12.00">有人开灯</text>
<text text-anchor="middle" x="1061.5" y="-23.4" font-family="Noto Sans CJK SC" font-size="12.00">湿度上升开排风</text>
<text text-anchor="middle" x="1061.5" y="-10.4" font-family="Noto Sans CJK SC" font-size="12.00">回落后延时关闭</text>
</g>
<!-- ha&#45;&gt;bathroom -->
<g id="edge4" class="edge">
<title>ha&#45;&gt;bathroom</title>
<path fill="none" stroke="#657786" stroke-width="1.3" d="M556.29,-122.66C572.13,-120.75 588.23,-118.82 603.5,-117 679.48,-107.96 698.68,-107.3 774.5,-97 806.14,-92.7 813.9,-90.58 845.5,-86 911.19,-76.47 929.84,-84.79 993.5,-66 994.4,-65.73 995.31,-65.46 996.22,-65.17"/>
<polygon fill="#657786" stroke="#657786" stroke-width="1.3" points="997.7,-68.36 1006,-61.77 995.4,-61.75 997.7,-68.36"/>
</g>
<!-- cinema -->
<g id="node7" class="node">
<title>cinema</title>
<path fill="#fff2d8" stroke="#607080" d="M969,-53C969,-53 818,-53 818,-53 812,-53 806,-47 806,-41 806,-41 806,-25 806,-25 806,-19 812,-13 818,-13 818,-13 969,-13 969,-13 975,-13 981,-19 981,-25 981,-25 981,-41 981,-41 981,-47 975,-53 969,-53"/>
<text text-anchor="middle" x="893.5" y="-36.4" font-family="Noto Sans CJK SC" font-size="12.00">观影模式</text>
<text text-anchor="middle" x="893.5" y="-23.4" font-family="Noto Sans CJK SC" font-size="12.00">关窗帘→调暗灯→投影/功放</text>
</g>
<!-- ha&#45;&gt;cinema -->
<g id="edge5" class="edge">
<title>ha&#45;&gt;cinema</title>
<path fill="none" stroke="#657786" stroke-width="1.3" d="M556,-118.8C589.42,-112.79 626.15,-105.41 659.5,-97 674.9,-93.12 678.13,-90.01 693.5,-86 737.36,-74.56 749.62,-77.37 793.5,-66 804.8,-63.07 816.71,-59.6 828.22,-56.05"/>
<polygon fill="#657786" stroke="#657786" stroke-width="1.3" points="829.27,-59.39 837.76,-53.06 827.17,-52.71 829.27,-59.39"/>
</g>
<!-- printing -->
<g id="node8" class="node">
<title>printing</title>
<path fill="#fff2d8" stroke="#607080" d="M437,-59.5C437,-59.5 326,-59.5 326,-59.5 320,-59.5 314,-53.5 314,-47.5 314,-47.5 314,-18.5 314,-18.5 314,-12.5 320,-6.5 326,-6.5 326,-6.5 437,-6.5 437,-6.5 443,-6.5 449,-12.5 449,-18.5 449,-18.5 449,-47.5 449,-47.5 449,-53.5 443,-59.5 437,-59.5"/>
<text text-anchor="middle" x="381.5" y="-42.9" font-family="Noto Sans CJK SC" font-size="12.00">P2S打印</text>
<text text-anchor="middle" x="381.5" y="-29.9" font-family="Noto Sans CJK SC" font-size="12.00">开排风→结束后延时</text>
<text text-anchor="middle" x="381.5" y="-16.9" font-family="Noto Sans CJK SC" font-size="12.00">高温/烟雾告警</text>
</g>
<!-- ha&#45;&gt;printing -->
<g id="edge6" class="edge">
<title>ha&#45;&gt;printing</title>
<path fill="none" stroke="#657786" stroke-width="1.3" d="M434.27,-116.81C425.59,-103.18 413.68,-84.5 403.37,-68.33"/>
<polygon fill="#657786" stroke="#657786" stroke-width="1.3" points="406.17,-66.2 397.84,-59.65 400.27,-69.96 406.17,-66.2"/>
</g>
<!-- leak -->
<g id="node9" class="node">
<title>leak</title>
<path fill="#e5f1fb" stroke="#607080" d="M621,-53C621,-53 486,-53 486,-53 480,-53 474,-47 474,-41 474,-41 474,-25 474,-25 474,-19 480,-13 486,-13 486,-13 621,-13 621,-13 627,-13 633,-19 633,-25 633,-25 633,-41 633,-41 633,-47 627,-53 621,-53"/>
<text text-anchor="middle" x="553.5" y="-36.4" font-family="Noto Sans CJK SC" font-size="12.00">漏水保护</text>
<text text-anchor="middle" x="553.5" y="-23.4" font-family="Noto Sans CJK SC" font-size="12.00">报警→通知→关闭总水阀</text>
</g>
<!-- ha&#45;&gt;leak -->
<g id="edge7" class="edge">
<title>ha&#45;&gt;leak</title>
<path fill="none" stroke="#657786" stroke-width="1.3" d="M449.65,-116.84C452.07,-106.79 456.29,-94.79 463.5,-86 472.62,-74.89 484.78,-65.66 497.2,-58.21"/>
<polygon fill="#657786" stroke="#657786" stroke-width="1.3" points="499.27,-61.07 506.26,-53.1 495.83,-54.97 499.27,-61.07"/>
</g>
<!-- away -->
<g id="node10" class="node">
<title>away</title>
<path fill="#f2f4f7" stroke="#607080" d="M135,-53C135,-53 12,-53 12,-53 6,-53 0,-47 0,-41 0,-41 0,-25 0,-25 0,-19 6,-13 12,-13 12,-13 135,-13 135,-13 141,-13 147,-19 147,-25 147,-25 147,-41 147,-41 147,-47 141,-53 135,-53"/>
<text text-anchor="middle" x="73.5" y="-36.4" font-family="Noto Sans CJK SC" font-size="12.00">离家模式</text>
<text text-anchor="middle" x="73.5" y="-23.4" font-family="Noto Sans CJK SC" font-size="12.00">关灯、暖通节能、扫地</text>
</g>
<!-- ha&#45;&gt;away -->
<g id="edge8" class="edge">
<title>ha&#45;&gt;away</title>
<path fill="none" stroke="#657786" stroke-width="1.3" d="M356.89,-116.98C299.91,-104.19 224.83,-86.05 159.5,-66 150.34,-63.19 140.75,-59.94 131.42,-56.6"/>
<polygon fill="#657786" stroke="#657786" stroke-width="1.3" points="132.42,-53.24 121.83,-53.11 130.03,-59.82 132.42,-53.24"/>
</g>
<!-- manual -->
<g id="node3" class="node">
<title>manual</title>
<path fill="#fce8e6" stroke="#c33a3a" stroke-width="2" d="M739,-157C739,-157 628,-157 628,-157 622,-157 616,-151 616,-145 616,-145 616,-129 616,-129 616,-123 622,-117 628,-117 628,-117 739,-117 739,-117 745,-117 751,-123 751,-129 751,-129 751,-145 751,-145 751,-151 745,-157 739,-157"/>
<text text-anchor="middle" x="683.5" y="-140.4" font-family="Noto Sans CJK SC" font-size="12.00">原厂控制与实体按键</text>
<text text-anchor="middle" x="683.5" y="-127.4" font-family="Noto Sans CJK SC" font-size="12.00">始终保留</text>
</g>
<!-- manual&#45;&gt;office -->
<g id="edge9" class="edge">
<title>manual&#45;&gt;office</title>
<path fill="none" stroke="#657786" stroke-width="1.3" stroke-dasharray="5,2" d="M690.27,-116.81C694.99,-103.43 701.43,-85.19 707.07,-69.23"/>
<polygon fill="#657786" stroke="#657786" stroke-width="1.3" points="710.42,-70.24 710.45,-59.65 703.82,-67.91 710.42,-70.24"/>
<text text-anchor="middle" x="734" y="-89" font-family="Noto Sans CJK SC" font-size="10.00">原厂线控可接管</text>
</g>
<!-- manual&#45;&gt;humidity -->
<g id="edge10" class="edge">
<title>manual&#45;&gt;humidity</title>
<path fill="none" stroke="#657786" stroke-width="1.3" stroke-dasharray="5,2" d="M615.63,-124.48C514,-107.1 330.99,-75.2 301.5,-66 300.62,-65.73 299.75,-65.45 298.86,-65.16"/>
<polygon fill="#657786" stroke="#657786" stroke-width="1.3" points="299.95,-61.83 289.36,-61.81 297.63,-68.43 299.95,-61.83"/>
</g>
<!-- manual&#45;&gt;bathroom -->
<g id="edge11" class="edge">
<title>manual&#45;&gt;bathroom</title>
<path fill="none" stroke="#657786" stroke-width="1.3" stroke-dasharray="5,2" d="M751.07,-125.69C814.8,-114.82 912.38,-95.18 993.5,-66 994.39,-65.68 995.28,-65.35 996.17,-65.02"/>
<polygon fill="#657786" stroke="#657786" stroke-width="1.3" points="997.8,-68.14 1005.82,-61.22 995.23,-61.63 997.8,-68.14"/>
<text text-anchor="middle" x="958" y="-89" font-family="Noto Sans CJK SC" font-size="10.00">排风/灯可手动</text>
</g>
<!-- manual&#45;&gt;cinema -->
<g id="edge12" class="edge">
<title>manual&#45;&gt;cinema</title>
<path fill="none" stroke="#657786" stroke-width="1.3" stroke-dasharray="5,2" d="M730.12,-116.89C744.47,-110.77 760.23,-103.82 774.5,-97 799.99,-84.82 827.93,-70.1 850.33,-57.95"/>
<polygon fill="#657786" stroke="#657786" stroke-width="1.3" points="852.15,-60.95 859.25,-53.09 848.8,-54.8 852.15,-60.95"/>
<text text-anchor="middle" x="830" y="-89" font-family="Noto Sans CJK SC" font-size="10.00">窗帘/灯实体按键</text>
</g>
<!-- manual&#45;&gt;printing -->
<g id="edge13" class="edge">
<title>manual&#45;&gt;printing</title>
<path fill="none" stroke="#657786" stroke-width="1.3" stroke-dasharray="5,2" d="M617.93,-116.92C573.47,-103.6 513.55,-84.88 461.5,-66 458.95,-65.08 456.36,-64.12 453.75,-63.15"/>
<polygon fill="#657786" stroke="#657786" stroke-width="1.3" points="454.83,-59.81 444.24,-59.54 452.35,-66.36 454.83,-59.81"/>
<text text-anchor="middle" x="581" y="-89" font-family="Noto Sans CJK SC" font-size="10.00">排风实体开关</text>
</g>
<!-- manual&#45;&gt;leak -->
<g id="edge14" class="edge">
<title>manual&#45;&gt;leak</title>
<path fill="none" stroke="#657786" stroke-width="1.3" stroke-dasharray="5,2" d="M659.05,-116.81C638.35,-100.57 608.51,-77.16 585.84,-59.38"/>
<polygon fill="#657786" stroke="#657786" stroke-width="1.3" points="587.87,-56.52 577.84,-53.1 583.55,-62.03 587.87,-56.52"/>
<text text-anchor="middle" x="654" y="-89" font-family="Noto Sans CJK SC" font-size="10.00">阀门可手动</text>
</g>
</g>
</svg>
