<?xml version="1.0" encoding="UTF-8" standalone="no"?>
<!DOCTYPE svg PUBLIC "-//W3C//DTD SVG 1.1//EN"
 "http://www.w3.org/Graphics/SVG/1.1/DTD/svg11.dtd">
<!-- Generated by graphviz version 2.42.4 (0)
 -->
<!-- Title: G Pages: 1 -->
<svg width="990pt" height="661pt"
 viewBox="0.00 0.00 990.00 661.00" xmlns="http://www.w3.org/2000/svg" xmlns:xlink="http://www.w3.org/1999/xlink">
<g id="graph0" class="graph" transform="scale(1 1) rotate(0) translate(18 643)">
<title>G</title>
<polygon fill="white" stroke="transparent" points="-18,18 -18,-643 972,-643 972,18 -18,18"/>
<text text-anchor="middle" x="477" y="-601.8" font-family="Noto Sans CJK SC" font-size="24.00">软件与部署架构 V3.2</text>
<g id="clust1" class="cluster">
<title>cluster_haos</title>
<path fill="white" stroke="#2474b5" d="M20,-73C20,-73 421,-73 421,-73 427,-73 433,-79 433,-85 433,-85 433,-394 433,-394 433,-400 427,-406 421,-406 421,-406 20,-406 20,-406 14,-406 8,-400 8,-394 8,-394 8,-85 8,-85 8,-79 14,-73 20,-73"/>
<text text-anchor="middle" x="220.5" y="-382.8" font-family="Noto Sans CJK SC" font-size="24.00">Home Assistant OS 虚拟机｜核心控制</text>
</g>
<g id="clust2" class="cluster">
<title>cluster_dev</title>
<path fill="white" stroke="#2e8b57" d="M485,-318C485,-318 934,-318 934,-318 940,-318 946,-324 946,-330 946,-330 946,-396 946,-396 946,-402 940,-408 934,-408 934,-408 485,-408 485,-408 479,-408 473,-402 473,-396 473,-396 473,-330 473,-330 473,-324 479,-318 485,-318"/>
<text text-anchor="middle" x="709.5" y="-384.8" font-family="Noto Sans CJK SC" font-size="24.00">独立 Linux VM / 容器｜后期开发</text>
</g>
<!-- router -->
<g id="node1" class="node">
<title>router</title>
<path fill="#ddeaf7" stroke="#2474b5" stroke-width="2" d="M563.5,-591C563.5,-591 440.5,-591 440.5,-591 434.5,-591 428.5,-585 428.5,-579 428.5,-579 428.5,-563 428.5,-563 428.5,-557 434.5,-551 440.5,-551 440.5,-551 563.5,-551 563.5,-551 569.5,-551 575.5,-557 575.5,-563 575.5,-563 575.5,-579 575.5,-579 575.5,-585 569.5,-591 563.5,-591"/>
<text text-anchor="middle" x="502" y="-574.4" font-family="Noto Sans CJK SC" font-size="12.00">独立路由器 / 防火墙</text>
<text text-anchor="middle" x="502" y="-561.4" font-family="Noto Sans CJK SC" font-size="12.00">不与自动化服务器共机</text>
</g>
<!-- mac -->
<g id="node2" class="node">
<title>mac</title>
<path fill="#f2f4f7" stroke="#607080" stroke-width="2" d="M554,-493.5C554,-493.5 450,-493.5 450,-493.5 444,-493.5 438,-487.5 438,-481.5 438,-481.5 438,-465.5 438,-465.5 438,-459.5 444,-453.5 450,-453.5 450,-453.5 554,-453.5 554,-453.5 560,-453.5 566,-459.5 566,-465.5 566,-465.5 566,-481.5 566,-481.5 566,-487.5 560,-493.5 554,-493.5"/>
<text text-anchor="middle" x="502" y="-476.9" font-family="Noto Sans CJK SC" font-size="12.00">Mac mini / macOS</text>
<text text-anchor="middle" x="502" y="-463.9" font-family="Noto Sans CJK SC" font-size="12.00">24×7运行</text>
</g>
<!-- router&#45;&gt;mac -->
<g id="edge1" class="edge">
<title>router&#45;&gt;mac</title>
<path fill="none" stroke="#657786" stroke-width="1.3" d="M502,-550.67C502,-537.34 502,-519.36 502,-504.22"/>
<polygon fill="#657786" stroke="#657786" stroke-width="1.3" points="505.5,-503.8 502,-493.8 498.5,-503.8 505.5,-503.8"/>
<text text-anchor="middle" x="511.5" y="-523" font-family="Noto Sans CJK SC" font-size="10.00">LAN</text>
</g>
<!-- ha -->
<g id="node3" class="node">
<title>ha</title>
<path fill="#ddeaf7" stroke="#607080" d="M412.5,-194C412.5,-194 293.5,-194 293.5,-194 287.5,-194 281.5,-188 281.5,-182 281.5,-182 281.5,-170 281.5,-170 281.5,-164 287.5,-158 293.5,-158 293.5,-158 412.5,-158 412.5,-158 418.5,-158 424.5,-164 424.5,-170 424.5,-170 424.5,-182 424.5,-182 424.5,-188 418.5,-194 412.5,-194"/>
<text text-anchor="middle" x="353" y="-172.9" font-family="Noto Sans CJK SC" font-size="12.00">Home Assistant Core</text>
</g>
<!-- mac&#45;&gt;ha -->
<g id="edge2" class="edge">
<title>mac&#45;&gt;ha</title>
<path fill="none" stroke="#657786" stroke-width="1.3" d="M489.64,-453.47C482.06,-441 472.74,-424.08 467,-408 440.69,-334.28 476.17,-300.95 434,-235 424.82,-220.64 410.7,-208.74 396.81,-199.54"/>
<polygon fill="#657786" stroke="#657786" stroke-width="1.3" points="398.57,-196.51 388.24,-194.16 394.85,-202.44 398.57,-196.51"/>
</g>
<!-- apps -->
<g id="node10" class="node">
<title>apps</title>
<path fill="#eaf6ed" stroke="#607080" d="M771.5,-366C771.5,-366 648.5,-366 648.5,-366 642.5,-366 636.5,-360 636.5,-354 636.5,-354 636.5,-338 636.5,-338 636.5,-332 642.5,-326 648.5,-326 648.5,-326 771.5,-326 771.5,-326 777.5,-326 783.5,-332 783.5,-338 783.5,-338 783.5,-354 783.5,-354 783.5,-360 777.5,-366 771.5,-366"/>
<text text-anchor="middle" x="710" y="-349.4" font-family="Noto Sans CJK SC" font-size="12.00">Python / Go / Node.js</text>
<text text-anchor="middle" x="710" y="-336.4" font-family="Noto Sans CJK SC" font-size="12.00">自编服务</text>
</g>
<!-- mac&#45;&gt;apps -->
<g id="edge3" class="edge">
<title>mac&#45;&gt;apps</title>
<path fill="none" stroke="#657786" stroke-width="1.3" d="M541.18,-453.43C565.47,-441.2 597.07,-424.57 624,-408 641.89,-396.99 661.02,-383.6 676.69,-372.16"/>
<polygon fill="#657786" stroke="#657786" stroke-width="1.3" points="679.02,-374.79 685,-366.04 674.87,-369.15 679.02,-374.79"/>
</g>
<!-- recorder -->
<g id="node8" class="node">
<title>recorder</title>
<path fill="#f2f4f7" stroke="#607080" d="M256,-117C256,-117 144,-117 144,-117 138,-117 132,-111 132,-105 132,-105 132,-93 132,-93 132,-87 138,-81 144,-81 144,-81 256,-81 256,-81 262,-81 268,-87 268,-93 268,-93 268,-105 268,-105 268,-111 262,-117 256,-117"/>
<text text-anchor="middle" x="200" y="-95.9" font-family="Noto Sans CJK SC" font-size="12.00">Recorder / 自动备份</text>
</g>
<!-- ha&#45;&gt;recorder -->
<g id="edge11" class="edge">
<title>ha&#45;&gt;recorder</title>
<path fill="none" stroke="#657786" stroke-width="1.3" d="M318.28,-157.98C296.25,-147.18 267.56,-133.12 243.95,-121.54"/>
<polygon fill="#657786" stroke="#657786" stroke-width="1.3" points="245.36,-118.34 234.85,-117.08 242.28,-124.63 245.36,-118.34"/>
</g>
<!-- nodered -->
<g id="node9" class="node">
<title>nodered</title>
<path fill="#f2f4f7" stroke="#607080" d="M413,-117C413,-117 305,-117 305,-117 299,-117 293,-111 293,-105 293,-105 293,-93 293,-93 293,-87 299,-81 305,-81 305,-81 413,-81 413,-81 419,-81 425,-87 425,-93 425,-93 425,-105 425,-105 425,-111 419,-117 413,-117"/>
<text text-anchor="middle" x="359" y="-95.9" font-family="Noto Sans CJK SC" font-size="12.00">Node&#45;RED（可选）</text>
</g>
<!-- ha&#45;&gt;nodered -->
<g id="edge12" class="edge">
<title>ha&#45;&gt;nodered</title>
<path fill="none" stroke="#657786" stroke-width="1.3" d="M354.36,-157.98C355.09,-148.94 355.99,-137.6 356.81,-127.35"/>
<polygon fill="#657786" stroke="#657786" stroke-width="1.3" points="360.31,-127.46 357.62,-117.21 353.34,-126.9 360.31,-127.46"/>
</g>
<!-- clients -->
<g id="node15" class="node">
<title>clients</title>
<path fill="#f2f4f7" stroke="#607080" d="M658,-117C658,-117 514,-117 514,-117 508,-117 502,-111 502,-105 502,-105 502,-93 502,-93 502,-87 508,-81 514,-81 514,-81 658,-81 658,-81 664,-81 670,-87 670,-93 670,-93 670,-105 670,-105 670,-111 664,-117 658,-117"/>
<text text-anchor="middle" x="586" y="-95.9" font-family="Noto Sans CJK SC" font-size="12.00">手机 / 浏览器 / 自编客户端</text>
</g>
<!-- ha&#45;&gt;clients -->
<g id="edge15" class="edge">
<title>ha&#45;&gt;clients</title>
<path fill="none" stroke="#657786" stroke-width="1.3" d="M405.87,-157.98C440.75,-146.75 486.61,-131.99 523.33,-120.17"/>
<polygon fill="#657786" stroke="#657786" stroke-width="1.3" points="524.49,-123.48 532.94,-117.08 522.34,-116.81 524.49,-123.48"/>
</g>
<!-- mqtt -->
<g id="node4" class="node">
<title>mqtt</title>
<path fill="#eee8fa" stroke="#607080" d="M409,-273C409,-273 313,-273 313,-273 307,-273 301,-267 301,-261 301,-261 301,-249 301,-249 301,-243 307,-237 313,-237 313,-237 409,-237 409,-237 415,-237 421,-243 421,-249 421,-249 421,-261 421,-261 421,-267 415,-273 409,-273"/>
<text text-anchor="middle" x="361" y="-251.9" font-family="Noto Sans CJK SC" font-size="12.00">Mosquitto MQTT</text>
</g>
<!-- mqtt&#45;&gt;ha -->
<g id="edge8" class="edge">
<title>mqtt&#45;&gt;ha</title>
<path fill="none" stroke="#657786" stroke-width="1.3" d="M359.22,-236.91C358.23,-227.34 356.97,-215.18 355.84,-204.32"/>
<polygon fill="#657786" stroke="#657786" stroke-width="1.3" points="359.29,-203.63 354.77,-194.04 352.32,-204.35 359.29,-203.63"/>
</g>
<!-- z2m -->
<g id="node5" class="node">
<title>z2m</title>
<path fill="#eee8fa" stroke="#607080" d="M383.5,-364C383.5,-364 302.5,-364 302.5,-364 296.5,-364 290.5,-358 290.5,-352 290.5,-352 290.5,-340 290.5,-340 290.5,-334 296.5,-328 302.5,-328 302.5,-328 383.5,-328 383.5,-328 389.5,-328 395.5,-334 395.5,-340 395.5,-340 395.5,-352 395.5,-352 395.5,-358 389.5,-364 383.5,-364"/>
<text text-anchor="middle" x="343" y="-342.9" font-family="Noto Sans CJK SC" font-size="12.00">Zigbee2MQTT</text>
</g>
<!-- z2m&#45;&gt;mqtt -->
<g id="edge7" class="edge">
<title>z2m&#45;&gt;mqtt</title>
<path fill="none" stroke="#657786" stroke-width="1.3" d="M346.47,-327.84C349.04,-315.16 352.58,-297.64 355.52,-283.08"/>
<polygon fill="#657786" stroke="#657786" stroke-width="1.3" points="358.99,-283.6 357.54,-273.11 352.13,-282.22 358.99,-283.6"/>
</g>
<!-- esp -->
<g id="node6" class="node">
<title>esp</title>
<path fill="#eee8fa" stroke="#607080" d="M263.5,-273C263.5,-273 204.5,-273 204.5,-273 198.5,-273 192.5,-267 192.5,-261 192.5,-261 192.5,-249 192.5,-249 192.5,-243 198.5,-237 204.5,-237 204.5,-237 263.5,-237 263.5,-237 269.5,-237 275.5,-243 275.5,-249 275.5,-249 275.5,-261 275.5,-261 275.5,-267 269.5,-273 263.5,-273"/>
<text text-anchor="middle" x="234" y="-251.9" font-family="Noto Sans CJK SC" font-size="12.00">ESPHome</text>
</g>
<!-- esp&#45;&gt;ha -->
<g id="edge10" class="edge">
<title>esp&#45;&gt;ha</title>
<path fill="none" stroke="#657786" stroke-width="1.3" d="M260.41,-236.91C277.43,-225.9 299.76,-211.45 318.22,-199.51"/>
<polygon fill="#657786" stroke="#657786" stroke-width="1.3" points="320.17,-202.41 326.66,-194.04 316.37,-196.54 320.17,-202.41"/>
</g>
<!-- modbus -->
<g id="node7" class="node">
<title>modbus</title>
<path fill="#fff2d8" stroke="#607080" d="M155.5,-275C155.5,-275 28.5,-275 28.5,-275 22.5,-275 16.5,-269 16.5,-263 16.5,-263 16.5,-247 16.5,-247 16.5,-241 22.5,-235 28.5,-235 28.5,-235 155.5,-235 155.5,-235 161.5,-235 167.5,-241 167.5,-247 167.5,-247 167.5,-263 167.5,-263 167.5,-269 161.5,-275 155.5,-275"/>
<text text-anchor="middle" x="92" y="-258.4" font-family="Noto Sans CJK SC" font-size="12.00">Modbus 集成</text>
<text text-anchor="middle" x="92" y="-245.4" font-family="Noto Sans CJK SC" font-size="12.00">日立只读发现/安全写入</text>
</g>
<!-- modbus&#45;&gt;ha -->
<g id="edge9" class="edge">
<title>modbus&#45;&gt;ha</title>
<path fill="none" stroke="#657786" stroke-width="1.3" d="M156.52,-234.97C195.7,-223.41 245.66,-208.67 285.4,-196.94"/>
<polygon fill="#657786" stroke="#657786" stroke-width="1.3" points="286.41,-200.3 295.01,-194.11 284.43,-193.58 286.41,-200.3"/>
</g>
<!-- backup -->
<g id="node16" class="node">
<title>backup</title>
<path fill="#f2f4f7" stroke="#607080" d="M516.5,-40C516.5,-40 441.5,-40 441.5,-40 435.5,-40 429.5,-34 429.5,-28 429.5,-28 429.5,-12 429.5,-12 429.5,-6 435.5,0 441.5,0 441.5,0 516.5,0 516.5,0 522.5,0 528.5,-6 528.5,-12 528.5,-12 528.5,-28 528.5,-28 528.5,-34 522.5,-40 516.5,-40"/>
<text text-anchor="middle" x="479" y="-23.4" font-family="Noto Sans CJK SC" font-size="12.00">独立备份目标</text>
<text text-anchor="middle" x="479" y="-10.4" font-family="Noto Sans CJK SC" font-size="12.00">加密备份</text>
</g>
<!-- recorder&#45;&gt;backup -->
<g id="edge18" class="edge">
<title>recorder&#45;&gt;backup</title>
<path fill="none" stroke="#657786" stroke-width="1.3" d="M253.25,-80.97C262.16,-78.24 271.33,-75.49 280,-73 326.67,-59.62 379.91,-45.78 419.57,-35.75"/>
<polygon fill="#657786" stroke="#657786" stroke-width="1.3" points="420.51,-39.12 429.35,-33.28 418.79,-32.33 420.51,-39.12"/>
</g>
<!-- apps&#45;&gt;ha -->
<g id="edge13" class="edge">
<title>apps&#45;&gt;ha</title>
<path fill="none" stroke="#657786" stroke-width="1.3" d="M667.92,-325.86C639.49,-312.51 601.39,-293.79 569,-275 526.88,-250.57 522.07,-234.7 478,-214 464.14,-207.49 448.87,-201.83 433.9,-197.04"/>
<polygon fill="#657786" stroke="#657786" stroke-width="1.3" points="434.72,-193.63 424.13,-194.01 432.65,-200.31 434.72,-193.63"/>
<text text-anchor="middle" x="611.5" y="-252.5" font-family="Noto Sans CJK SC" font-size="10.00">REST / WebSocket</text>
</g>
<!-- apps&#45;&gt;mqtt -->
<g id="edge14" class="edge">
<title>apps&#45;&gt;mqtt</title>
<path fill="none" stroke="#657786" stroke-width="1.3" d="M655.4,-325.95C645.07,-322.9 634.28,-320.06 624,-318 567.11,-306.58 550.55,-318.99 494,-306 464.47,-299.22 432.67,-287.43 407.57,-277.01"/>
<polygon fill="#657786" stroke="#657786" stroke-width="1.3" points="408.87,-273.76 398.29,-273.1 406.14,-280.21 408.87,-273.76"/>
<text text-anchor="middle" x="508" y="-298" font-family="Noto Sans CJK SC" font-size="10.00">MQTT</text>
</g>
<!-- apps&#45;&gt;clients -->
<g id="edge16" class="edge">
<title>apps&#45;&gt;clients</title>
<path fill="none" stroke="#657786" stroke-width="1.3" d="M700.76,-325.86C690.11,-303.86 672.01,-266.72 656,-235 636.85,-197.05 614.1,-153.43 599.85,-126.29"/>
<polygon fill="#657786" stroke="#657786" stroke-width="1.3" points="602.93,-124.64 595.18,-117.41 596.74,-127.89 602.93,-124.64"/>
</g>
<!-- git -->
<g id="node11" class="node">
<title>git</title>
<path fill="#eaf6ed" stroke="#607080" d="M925.5,-364C925.5,-364 820.5,-364 820.5,-364 814.5,-364 808.5,-358 808.5,-352 808.5,-352 808.5,-340 808.5,-340 808.5,-334 814.5,-328 820.5,-328 820.5,-328 925.5,-328 925.5,-328 931.5,-328 937.5,-334 937.5,-340 937.5,-340 937.5,-352 937.5,-352 937.5,-358 931.5,-364 925.5,-364"/>
<text text-anchor="middle" x="873" y="-342.9" font-family="Noto Sans CJK SC" font-size="12.00">Git 配置与版本管理</text>
</g>
<!-- git&#45;&gt;backup -->
<g id="edge19" class="edge">
<title>git&#45;&gt;backup</title>
<path fill="none" stroke="#657786" stroke-width="1.3" d="M823,-327.94C792.37,-313.97 759,-290.78 759,-256 759,-256 759,-256 759,-98 759,-52.69 620.95,-33.05 538.72,-25.36"/>
<polygon fill="#657786" stroke="#657786" stroke-width="1.3" points="539.01,-21.88 528.74,-24.46 538.38,-28.85 539.01,-21.88"/>
</g>
<!-- data -->
<g id="node12" class="node">
<title>data</title>
<path fill="#eaf6ed" stroke="#607080" d="M599,-366C599,-366 493,-366 493,-366 487,-366 481,-360 481,-354 481,-354 481,-338 481,-338 481,-332 487,-326 493,-326 493,-326 599,-326 599,-326 605,-326 611,-332 611,-338 611,-338 611,-354 611,-354 611,-360 605,-366 599,-366"/>
<text text-anchor="middle" x="546" y="-349.4" font-family="Noto Sans CJK SC" font-size="12.00">InfluxDB / Grafana</text>
<text text-anchor="middle" x="546" y="-336.4" font-family="Noto Sans CJK SC" font-size="12.00">后期趋势分析</text>
</g>
<!-- dell -->
<g id="node13" class="node">
<title>dell</title>
<path fill="#fff2d8" stroke="#d28e1e" stroke-width="2" d="M789,-500C789,-500 631,-500 631,-500 625,-500 619,-494 619,-488 619,-488 619,-459 619,-459 619,-453 625,-447 631,-447 631,-447 789,-447 789,-447 795,-447 801,-453 801,-459 801,-459 801,-488 801,-488 801,-494 795,-500 789,-500"/>
<text text-anchor="middle" x="710" y="-483.4" font-family="Noto Sans CJK SC" font-size="12.00">Bedroom1 RTX 3090</text>
<text text-anchor="middle" x="710" y="-470.4" font-family="Noto Sans CJK SC" font-size="12.00">可选 AI / 视频 / 语音计算节点</text>
<text text-anchor="middle" x="710" y="-457.4" font-family="Noto Sans CJK SC" font-size="12.00">不承担核心控制</text>
</g>
<!-- dell&#45;&gt;apps -->
<g id="edge17" class="edge">
<title>dell&#45;&gt;apps</title>
<path fill="none" stroke="#657786" stroke-width="1.3" d="M710,-446.8C710,-426.31 710,-397.61 710,-376.24"/>
<polygon fill="#657786" stroke="#657786" stroke-width="1.3" points="713.5,-376.12 710,-366.12 706.5,-376.12 713.5,-376.12"/>
<text text-anchor="middle" x="730" y="-419" font-family="Noto Sans CJK SC" font-size="10.00">按需调用</text>
</g>
<!-- devices -->
<g id="node14" class="node">
<title>devices</title>
<path fill="#f2f4f7" stroke="#607080" d="M344.5,-491.5C344.5,-491.5 123.5,-491.5 123.5,-491.5 117.5,-491.5 111.5,-485.5 111.5,-479.5 111.5,-479.5 111.5,-467.5 111.5,-467.5 111.5,-461.5 117.5,-455.5 123.5,-455.5 123.5,-455.5 344.5,-455.5 344.5,-455.5 350.5,-455.5 356.5,-461.5 356.5,-467.5 356.5,-467.5 356.5,-479.5 356.5,-479.5 356.5,-485.5 350.5,-491.5 344.5,-491.5"/>
<text text-anchor="middle" x="234" y="-470.4" font-family="Noto Sans CJK SC" font-size="12.00">Zigbee / Modbus / Ethernet / Wi&#45;Fi 设备</text>
</g>
<!-- devices&#45;&gt;z2m -->
<g id="edge4" class="edge">
<title>devices&#45;&gt;z2m</title>
<path fill="none" stroke="#657786" stroke-width="1.3" d="M248.93,-455.31C267.58,-433.84 299.64,-396.93 321.07,-372.24"/>
<polygon fill="#657786" stroke="#657786" stroke-width="1.3" points="323.99,-374.23 327.9,-364.38 318.7,-369.64 323.99,-374.23"/>
</g>
<!-- devices&#45;&gt;esp -->
<g id="edge6" class="edge">
<title>devices&#45;&gt;esp</title>
<path fill="none" stroke="#657786" stroke-width="1.3" d="M234,-455.15C234,-417.61 234,-328.58 234,-283.37"/>
<polygon fill="#657786" stroke="#657786" stroke-width="1.3" points="237.5,-283.13 234,-273.13 230.5,-283.13 237.5,-283.13"/>
</g>
<!-- devices&#45;&gt;modbus -->
<g id="edge5" class="edge">
<title>devices&#45;&gt;modbus</title>
<path fill="none" stroke="#657786" stroke-width="1.3" d="M222.62,-455.15C198.06,-417.71 139.93,-329.07 110.2,-283.74"/>
<polygon fill="#657786" stroke="#657786" stroke-width="1.3" points="113.06,-281.73 104.65,-275.28 107.21,-285.56 113.06,-281.73"/>
</g>
</g>
</svg>
