<?xml version="1.0" encoding="UTF-8" standalone="no"?>
<!DOCTYPE svg PUBLIC "-//W3C//DTD SVG 1.1//EN"
 "http://www.w3.org/Graphics/SVG/1.1/DTD/svg11.dtd">
<!-- Generated by graphviz version 2.42.4 (0)
 -->
<!-- Title: G Pages: 1 -->
<svg width="2009pt" height="327pt"
 viewBox="0.00 0.00 2009.00 327.00" xmlns="http://www.w3.org/2000/svg" xmlns:xlink="http://www.w3.org/1999/xlink">
<g id="graph0" class="graph" transform="scale(1 1) rotate(0) translate(18 309)">
<title>G</title>
<polygon fill="white" stroke="transparent" points="-18,18 -18,-309 1991,-309 1991,18 -18,18"/>
<text text-anchor="middle" x="986.5" y="-267.8" font-family="Noto Sans CJK SC" font-size="24.00">暖通与中央加湿 RS&#45;485 架构 V3.2</text>
<!-- hitachi -->
<g id="node1" class="node">
<title>hitachi</title>
<path fill="#e8f2fc" stroke="#607080" d="M235,-170C235,-170 148,-170 148,-170 142,-170 136,-164 136,-158 136,-158 136,-146 136,-146 136,-140 142,-134 148,-134 148,-134 235,-134 235,-134 241,-134 247,-140 247,-146 247,-146 247,-158 247,-158 247,-164 241,-170 235,-170"/>
<text text-anchor="middle" x="191.5" y="-148.9" font-family="Noto Sans CJK SC" font-size="12.00">日立多联机系统</text>
</g>
<!-- hconv -->
<g id="node2" class="node">
<title>hconv</title>
<path fill="#fff2d8" stroke="#d28e1e" stroke-width="2" d="M565,-115.5C565,-115.5 406,-115.5 406,-115.5 400,-115.5 394,-109.5 394,-103.5 394,-103.5 394,-74.5 394,-74.5 394,-68.5 400,-62.5 406,-62.5 406,-62.5 565,-62.5 565,-62.5 571,-62.5 577,-68.5 577,-74.5 577,-74.5 577,-103.5 577,-103.5 577,-109.5 571,-115.5 565,-115.5"/>
<text text-anchor="middle" x="485.5" y="-98.9" font-family="Noto Sans CJK SC" font-size="12.00">日立 Modbus / MiniModbus</text>
<text text-anchor="middle" x="485.5" y="-85.9" font-family="Noto Sans CJK SC" font-size="12.00">协议转换器</text>
<text text-anchor="middle" x="485.5" y="-72.9" font-family="Noto Sans CJK SC" font-size="12.00">点表已取得；串口参数待手册</text>
</g>
<!-- hitachi&#45;&gt;hconv -->
<g id="edge1" class="edge">
<title>hitachi&#45;&gt;hconv</title>
<path fill="none" stroke="#657786" stroke-width="1.3" d="M247.08,-140.22C285.45,-131.95 337.91,-120.63 383.77,-110.73"/>
<polygon fill="#657786" stroke="#657786" stroke-width="1.3" points="384.71,-114.11 393.75,-108.58 383.23,-107.27 384.71,-114.11"/>
<text text-anchor="middle" x="320.5" y="-136" font-family="Noto Sans CJK SC" font-size="10.00">日立内部通信</text>
</g>
<!-- discovery -->
<g id="node3" class="node">
<title>discovery</title>
<path fill="#eaf6ed" stroke="#2e8b57" stroke-width="2" d="M746,-122C746,-122 638,-122 638,-122 632,-122 626,-116 626,-110 626,-110 626,-68 626,-68 626,-62 632,-56 638,-56 638,-56 746,-56 746,-56 752,-56 758,-62 758,-68 758,-68 758,-110 758,-110 758,-116 752,-122 746,-122"/>
<text text-anchor="middle" x="692" y="-105.4" font-family="Noto Sans CJK SC" font-size="12.00">发现与就绪</text>
<text text-anchor="middle" x="692" y="-92.4" font-family="Noto Sans CJK SC" font-size="12.00">4998=1 才可控</text>
<text text-anchor="middle" x="692" y="-79.4" font-family="Noto Sans CJK SC" font-size="12.00">4997=室内机数量</text>
<text text-anchor="middle" x="692" y="-66.4" font-family="Noto Sans CJK SC" font-size="12.00">4999=人工重新搜索</text>
</g>
<!-- hconv&#45;&gt;discovery -->
<g id="edge2" class="edge">
<title>hconv&#45;&gt;discovery</title>
<path fill="none" stroke="#657786" stroke-width="1.3" d="M577.09,-89C589.94,-89 603.05,-89 615.57,-89"/>
<polygon fill="#657786" stroke="#657786" stroke-width="1.3" points="615.94,-92.5 625.94,-89 615.94,-85.5 615.94,-92.5"/>
</g>
<!-- gateway -->
<g id="node7" class="node">
<title>gateway</title>
<path fill="#ddeaf7" stroke="#2474b5" stroke-width="2" d="M1785,-128.5C1785,-128.5 1658,-128.5 1658,-128.5 1652,-128.5 1646,-122.5 1646,-116.5 1646,-116.5 1646,-87.5 1646,-87.5 1646,-81.5 1652,-75.5 1658,-75.5 1658,-75.5 1785,-75.5 1785,-75.5 1791,-75.5 1797,-81.5 1797,-87.5 1797,-87.5 1797,-116.5 1797,-116.5 1797,-122.5 1791,-128.5 1785,-128.5"/>
<text text-anchor="middle" x="1721.5" y="-111.9" font-family="Noto Sans CJK SC" font-size="12.00">4路隔离型</text>
<text text-anchor="middle" x="1721.5" y="-98.9" font-family="Noto Sans CJK SC" font-size="12.00">RS&#45;485转Ethernet网关</text>
<text text-anchor="middle" x="1721.5" y="-85.9" font-family="Noto Sans CJK SC" font-size="12.00">每路独立参数</text>
</g>
<!-- hconv&#45;&gt;gateway -->
<g id="edge4" class="edge">
<title>hconv&#45;&gt;gateway</title>
<path fill="none" stroke="#657786" stroke-width="1.3" d="M522.87,-62.3C562.24,-36.08 627.89,0 691,0 691,0 691,0 1482,0 1554.13,0 1629.37,-39.93 1675.59,-69.83"/>
<polygon fill="#657786" stroke="#657786" stroke-width="1.3" points="1673.88,-72.89 1684.15,-75.47 1677.73,-67.04 1673.88,-72.89"/>
<text text-anchor="middle" x="1043" y="-14" font-family="Noto Sans CJK SC" font-size="10.00">Port 1</text>
<text text-anchor="middle" x="1043" y="-3" font-family="Noto Sans CJK SC" font-size="10.00">预计RS&#45;485</text>
</g>
<!-- units -->
<g id="node4" class="node">
<title>units</title>
<path fill="#e9f4f7" stroke="#607080" d="M964,-122C964,-122 846,-122 846,-122 840,-122 834,-116 834,-110 834,-110 834,-68 834,-68 834,-62 840,-56 846,-56 846,-56 964,-56 964,-56 970,-56 976,-62 976,-68 976,-68 976,-110 976,-110 976,-116 970,-122 964,-122"/>
<text text-anchor="middle" x="905" y="-105.4" font-family="Noto Sans CJK SC" font-size="12.00">每台室内机 91 寄存器</text>
<text text-anchor="middle" x="905" y="-92.4" font-family="Noto Sans CJK SC" font-size="12.00">B=40000+91×Y</text>
<text text-anchor="middle" x="905" y="-79.4" font-family="Noto Sans CJK SC" font-size="12.00">状态 B+28…39</text>
<text text-anchor="middle" x="905" y="-66.4" font-family="Noto Sans CJK SC" font-size="12.00">控制 B+78…85</text>
</g>
<!-- discovery&#45;&gt;units -->
<g id="edge3" class="edge">
<title>discovery&#45;&gt;units</title>
<path fill="none" stroke="#657786" stroke-width="1.3" d="M758.03,-89C778.73,-89 801.87,-89 823.53,-89"/>
<polygon fill="#657786" stroke="#657786" stroke-width="1.3" points="823.69,-92.5 833.69,-89 823.69,-85.5 823.69,-92.5"/>
</g>
<!-- ha -->
<g id="node9" class="node">
<title>ha</title>
<path fill="#ddeaf7" stroke="#2474b5" stroke-width="2" d="M1293,-176C1293,-176 1122,-176 1122,-176 1116,-176 1110,-170 1110,-164 1110,-164 1110,-148 1110,-148 1110,-142 1116,-136 1122,-136 1122,-136 1293,-136 1293,-136 1299,-136 1305,-142 1305,-148 1305,-148 1305,-164 1305,-164 1305,-170 1299,-176 1293,-176"/>
<text text-anchor="middle" x="1207.5" y="-159.4" font-family="Noto Sans CJK SC" font-size="12.00">Home Assistant</text>
<text text-anchor="middle" x="1207.5" y="-146.4" font-family="Noto Sans CJK SC" font-size="12.00">只读发现→房间映射→安全写入</text>
</g>
<!-- units&#45;&gt;ha -->
<g id="edge9" class="edge">
<title>units&#45;&gt;ha</title>
<path fill="none" stroke="#657786" stroke-width="1.3" d="M985.84,-106.8C1022.94,-115.07 1067.43,-124.99 1106.71,-133.75"/>
<polygon fill="#657786" stroke="#657786" stroke-width="1.3" points="986.6,-103.38 976.07,-104.62 985.07,-110.22 986.6,-103.38"/>
<polygon fill="#657786" stroke="#657786" stroke-width="1.3" points="1106.06,-137.19 1116.58,-135.95 1107.58,-130.36 1106.06,-137.19"/>
<text text-anchor="middle" x="1043" y="-132" font-family="Noto Sans CJK SC" font-size="10.00">状态 / 控制</text>
</g>
<!-- gne -->
<g id="node5" class="node">
<title>gne</title>
<path fill="#e9f4f7" stroke="#607080" d="M358,-255C358,-255 283,-255 283,-255 277,-255 271,-249 271,-243 271,-243 271,-227 271,-227 271,-221 277,-215 283,-215 283,-215 358,-215 358,-215 364,-215 370,-221 370,-227 370,-227 370,-243 370,-243 370,-249 364,-255 358,-255"/>
<text text-anchor="middle" x="320.5" y="-238.4" font-family="Noto Sans CJK SC" font-size="12.00">格恩中央加湿</text>
<text text-anchor="middle" x="320.5" y="-225.4" font-family="Noto Sans CJK SC" font-size="12.00">液晶控制器</text>
</g>
<!-- gneproto -->
<g id="node6" class="node">
<title>gneproto</title>
<path fill="#eaf6ed" stroke="#2e8b57" stroke-width="2" d="M1539,-166.5C1539,-166.5 1423,-166.5 1423,-166.5 1417,-166.5 1411,-160.5 1411,-154.5 1411,-154.5 1411,-125.5 1411,-125.5 1411,-119.5 1417,-113.5 1423,-113.5 1423,-113.5 1539,-113.5 1539,-113.5 1545,-113.5 1551,-119.5 1551,-125.5 1551,-125.5 1551,-154.5 1551,-154.5 1551,-160.5 1545,-166.5 1539,-166.5"/>
<text text-anchor="middle" x="1481" y="-149.9" font-family="Noto Sans CJK SC" font-size="12.00">Modbus RTU</text>
<text text-anchor="middle" x="1481" y="-136.9" font-family="Noto Sans CJK SC" font-size="12.00">RS&#45;485｜9600｜8N1</text>
<text text-anchor="middle" x="1481" y="-123.9" font-family="Noto Sans CJK SC" font-size="12.00">湿度/水位/运行/故障</text>
</g>
<!-- gne&#45;&gt;gneproto -->
<g id="edge5" class="edge">
<title>gne&#45;&gt;gneproto</title>
<path fill="none" stroke="#657786" stroke-width="1.3" d="M370.2,-238.08C425.95,-241.33 520.02,-246 601,-246 601,-246 601,-246 1208.5,-246 1290.77,-246 1378.06,-203.24 1430.8,-172.04"/>
<polygon fill="#657786" stroke="#657786" stroke-width="1.3" points="1432.83,-174.9 1439.6,-166.75 1429.23,-168.9 1432.83,-174.9"/>
<text text-anchor="middle" x="796" y="-249" font-family="Noto Sans CJK SC" font-size="10.00">Port 2</text>
</g>
<!-- gneproto&#45;&gt;gateway -->
<g id="edge6" class="edge">
<title>gneproto&#45;&gt;gateway</title>
<path fill="none" stroke="#657786" stroke-width="1.3" d="M1551.3,-128.96C1577.64,-124.76 1607.94,-119.93 1635.56,-115.53"/>
<polygon fill="#657786" stroke="#657786" stroke-width="1.3" points="1636.28,-118.96 1645.6,-113.93 1635.18,-112.05 1636.28,-118.96"/>
<text text-anchor="middle" x="1598.5" y="-128" font-family="Noto Sans CJK SC" font-size="10.00">Port 2</text>
</g>
<!-- lan -->
<g id="node8" class="node">
<title>lan</title>
<path fill="#eee8fa" stroke="#607080" d="M1961,-195C1961,-195 1858,-195 1858,-195 1852,-195 1846,-189 1846,-183 1846,-183 1846,-167 1846,-167 1846,-161 1852,-155 1858,-155 1858,-155 1961,-155 1961,-155 1967,-155 1973,-161 1973,-167 1973,-167 1973,-183 1973,-183 1973,-189 1967,-195 1961,-195"/>
<text text-anchor="middle" x="1909.5" y="-178.4" font-family="Noto Sans CJK SC" font-size="12.00">Automation VLAN</text>
<text text-anchor="middle" x="1909.5" y="-165.4" font-family="Noto Sans CJK SC" font-size="12.00">固定IP</text>
</g>
<!-- gateway&#45;&gt;lan -->
<g id="edge7" class="edge">
<title>gateway&#45;&gt;lan</title>
<path fill="none" stroke="#657786" stroke-width="1.3" d="M1790.18,-128.56C1809.11,-135.99 1829.55,-144.01 1848.03,-151.27"/>
<polygon fill="#657786" stroke="#657786" stroke-width="1.3" points="1846.91,-154.59 1857.5,-154.98 1849.47,-148.07 1846.91,-154.59"/>
</g>
<!-- lan&#45;&gt;ha -->
<g id="edge8" class="edge">
<title>lan&#45;&gt;ha</title>
<path fill="none" stroke="#657786" stroke-width="1.3" d="M1845.99,-178.69C1751.64,-183.6 1567.26,-190.61 1411,-181 1379.87,-179.09 1346.2,-175.53 1315.42,-171.69"/>
<polygon fill="#657786" stroke="#657786" stroke-width="1.3" points="1315.46,-168.17 1305.1,-170.38 1314.58,-175.11 1315.46,-168.17"/>
</g>
<!-- ha&#45;&gt;gneproto -->
<g id="edge11" class="edge">
<title>ha&#45;&gt;gneproto</title>
<path fill="none" stroke="#657786" stroke-width="1.3" d="M1315.68,-149.68C1344.09,-148.01 1374.25,-146.23 1400.87,-144.66"/>
<polygon fill="#657786" stroke="#657786" stroke-width="1.3" points="1315.14,-146.21 1305.37,-150.29 1315.56,-153.2 1315.14,-146.21"/>
<polygon fill="#657786" stroke="#657786" stroke-width="1.3" points="1401.11,-148.16 1410.88,-144.07 1400.7,-141.17 1401.11,-148.16"/>
<text text-anchor="middle" x="1358" y="-151" font-family="Noto Sans CJK SC" font-size="10.00">设定值 / 状态</text>
</g>
<!-- sensors -->
<g id="node10" class="node">
<title>sensors</title>
<path fill="#eee8fa" stroke="#607080" d="M948.5,-191C948.5,-191 861.5,-191 861.5,-191 855.5,-191 849.5,-185 849.5,-179 849.5,-179 849.5,-163 849.5,-163 849.5,-157 855.5,-151 861.5,-151 861.5,-151 948.5,-151 948.5,-151 954.5,-151 960.5,-157 960.5,-163 960.5,-163 960.5,-179 960.5,-179 960.5,-185 954.5,-191 948.5,-191"/>
<text text-anchor="middle" x="905" y="-174.4" font-family="Noto Sans CJK SC" font-size="12.00">房间独立传感器</text>
<text text-anchor="middle" x="905" y="-161.4" font-family="Noto Sans CJK SC" font-size="12.00">温湿度 + CO₂</text>
</g>
<!-- sensors&#45;&gt;ha -->
<g id="edge10" class="edge">
<title>sensors&#45;&gt;ha</title>
<path fill="none" stroke="#657786" stroke-width="1.3" d="M960.77,-168.27C999.49,-166.33 1052.65,-163.68 1099.63,-161.33"/>
<polygon fill="#657786" stroke="#657786" stroke-width="1.3" points="1100.04,-164.82 1109.86,-160.82 1099.7,-157.83 1100.04,-164.82"/>
<text text-anchor="middle" x="1043" y="-169" font-family="Noto Sans CJK SC" font-size="10.00">Zigbee / ESPHome</text>
</g>
<!-- original -->
<g id="node11" class="node">
<title>original</title>
<path fill="#fce8e6" stroke="#c33a3a" d="M75,-213C75,-213 12,-213 12,-213 6,-213 0,-207 0,-201 0,-201 0,-185 0,-185 0,-179 6,-173 12,-173 12,-173 75,-173 75,-173 81,-173 87,-179 87,-185 87,-185 87,-201 87,-201 87,-207 81,-213 75,-213"/>
<text text-anchor="middle" x="43.5" y="-196.4" font-family="Noto Sans CJK SC" font-size="12.00">原厂线控器</text>
<text text-anchor="middle" x="43.5" y="-183.4" font-family="Noto Sans CJK SC" font-size="12.00">始终保留</text>
</g>
<!-- original&#45;&gt;hitachi -->
<g id="edge12" class="edge">
<title>original&#45;&gt;hitachi</title>
<path fill="none" stroke="#657786" stroke-width="1.3" d="M97.02,-178.25C106.48,-175.6 116.44,-172.8 126.19,-170.06"/>
<polygon fill="#657786" stroke="#657786" stroke-width="1.3" points="95.8,-174.96 87.12,-181.03 97.7,-181.7 95.8,-174.96"/>
<polygon fill="#657786" stroke="#657786" stroke-width="1.3" points="127.17,-173.42 135.85,-167.35 125.27,-166.68 127.17,-173.42"/>
</g>
<!-- original&#45;&gt;gne -->
<g id="edge13" class="edge">
<title>original&#45;&gt;gne</title>
<path fill="none" stroke="#657786" stroke-width="1.3" d="M97.15,-201.04C143.89,-208.18 212.12,-218.6 260.66,-226.01"/>
<polygon fill="#657786" stroke="#657786" stroke-width="1.3" points="97.58,-197.57 87.17,-199.52 96.52,-204.49 97.58,-197.57"/>
<polygon fill="#657786" stroke="#657786" stroke-width="1.3" points="260.28,-229.5 270.7,-227.55 261.34,-222.58 260.28,-229.5"/>
</g>
<!-- daikin -->
<g id="node12" class="node">
<title>daikin</title>
<path fill="none" stroke="#607080" stroke-dasharray="5,2" d="M1531,-84C1531,-84 1431,-84 1431,-84 1425,-84 1419,-78 1419,-72 1419,-72 1419,-56 1419,-56 1419,-50 1425,-44 1431,-44 1431,-44 1531,-44 1531,-44 1537,-44 1543,-50 1543,-56 1543,-56 1543,-72 1543,-72 1543,-78 1537,-84 1531,-84"/>
<text text-anchor="middle" x="1481" y="-67.4" font-family="Noto Sans CJK SC" font-size="12.00">大金 DTA120A611</text>
<text text-anchor="middle" x="1481" y="-54.4" font-family="Noto Sans CJK SC" font-size="12.00">资料到达后再比较</text>
</g>
<!-- daikin&#45;&gt;gateway -->
<g id="edge14" class="edge">
<title>daikin&#45;&gt;gateway</title>
<path fill="none" stroke="#657786" stroke-width="1.3" stroke-dasharray="5,2" d="M1543.11,-73.74C1571.26,-78.22 1605.13,-83.62 1635.69,-88.49"/>
<polygon fill="#657786" stroke="#657786" stroke-width="1.3" points="1635.49,-92 1645.92,-90.12 1636.6,-85.09 1635.49,-92"/>
<text text-anchor="middle" x="1598.5" y="-89" font-family="Noto Sans CJK SC" font-size="10.00">Port 4预留</text>
</g>
</g>
</svg>
