<?xml version="1.0" encoding="UTF-8" standalone="no"?>
<!DOCTYPE svg PUBLIC "-//W3C//DTD SVG 1.1//EN"
 "http://www.w3.org/Graphics/SVG/1.1/DTD/svg11.dtd">
<!-- Generated by graphviz version 2.42.4 (0)
 -->
<!-- Title: G Pages: 1 -->
<svg width="449pt" height="755pt"
 viewBox="0.00 0.00 449.00 755.00" xmlns="http://www.w3.org/2000/svg" xmlns:xlink="http://www.w3.org/1999/xlink">
<g id="graph0" class="graph" transform="scale(1 1) rotate(0) translate(18 737)">
<title>G</title>
<polygon fill="white" stroke="transparent" points="-18,18 -18,-737 431,-737 431,18 -18,18"/>
<text text-anchor="middle" x="206.5" y="-695.8" font-family="Noto Sans CJK SC" font-size="24.00">日立空调 Modbus 连接与控制流程 V1</text>
<!-- connect -->
<g id="node1" class="node">
<title>connect</title>
<path fill="#ddeaf7" stroke="#2474b5" stroke-width="2" d="M189.75,-678.5C189.75,-678.5 14.75,-678.5 14.75,-678.5 8.75,-678.5 2.75,-672.5 2.75,-666.5 2.75,-666.5 2.75,-650.5 2.75,-650.5 2.75,-644.5 8.75,-638.5 14.75,-638.5 14.75,-638.5 189.75,-638.5 189.75,-638.5 195.75,-638.5 201.75,-644.5 201.75,-650.5 201.75,-650.5 201.75,-666.5 201.75,-666.5 201.75,-672.5 195.75,-678.5 189.75,-678.5"/>
<text text-anchor="middle" x="102.25" y="-661.9" font-family="Noto Sans CJK SC" font-size="12.00">连接 Modbus</text>
<text text-anchor="middle" x="102.25" y="-648.9" font-family="Noto Sans CJK SC" font-size="12.00">串口参数/从机地址来自安装手册</text>
</g>
<!-- ready -->
<g id="node2" class="node">
<title>ready</title>
<path fill="#eee8fa" stroke="#607080" d="M232.75,-591C232.75,-591 175.75,-591 175.75,-591 169.75,-591 163.75,-585 163.75,-579 163.75,-579 163.75,-567 163.75,-567 163.75,-561 169.75,-555 175.75,-555 175.75,-555 232.75,-555 232.75,-555 238.75,-555 244.75,-561 244.75,-567 244.75,-567 244.75,-579 244.75,-579 244.75,-585 238.75,-591 232.75,-591"/>
<text text-anchor="middle" x="204.25" y="-569.9" font-family="Noto Sans CJK SC" font-size="12.00">读取 4998</text>
</g>
<!-- connect&#45;&gt;ready -->
<g id="edge1" class="edge">
<title>connect&#45;&gt;ready</title>
<path fill="none" stroke="#657786" stroke-width="1.3" d="M125.65,-638.34C140.48,-626.21 159.75,-610.43 175.51,-597.53"/>
<polygon fill="#657786" stroke="#657786" stroke-width="1.3" points="177.86,-600.13 183.38,-591.08 173.43,-594.71 177.86,-600.13"/>
</g>
<!-- wait -->
<g id="node3" class="node">
<title>wait</title>
<path fill="#fce8e6" stroke="#c33a3a" d="M206.75,-504C206.75,-504 113.75,-504 113.75,-504 107.75,-504 101.75,-498 101.75,-492 101.75,-492 101.75,-476 101.75,-476 101.75,-470 107.75,-464 113.75,-464 113.75,-464 206.75,-464 206.75,-464 212.75,-464 218.75,-470 218.75,-476 218.75,-476 218.75,-492 218.75,-492 218.75,-498 212.75,-504 206.75,-504"/>
<text text-anchor="middle" x="160.25" y="-487.4" font-family="Noto Sans CJK SC" font-size="12.00">非1：等待并重试</text>
<text text-anchor="middle" x="160.25" y="-474.4" font-family="Noto Sans CJK SC" font-size="12.00">禁止控制</text>
</g>
<!-- ready&#45;&gt;wait -->
<g id="edge2" class="edge">
<title>ready&#45;&gt;wait</title>
<path fill="none" stroke="#657786" stroke-width="1.3" d="M175.52,-554.74C168.97,-549.31 162.88,-542.68 159.25,-535 156.33,-528.82 155.3,-521.71 155.28,-514.83"/>
<polygon fill="#657786" stroke="#657786" stroke-width="1.3" points="158.8,-514.57 155.94,-504.36 151.81,-514.12 158.8,-514.57"/>
<text text-anchor="middle" x="166.25" y="-527" font-family="Noto Sans CJK SC" font-size="10.00">!=1</text>
</g>
<!-- count -->
<g id="node4" class="node">
<title>count</title>
<path fill="#eaf6ed" stroke="#607080" d="M378.75,-504C378.75,-504 255.75,-504 255.75,-504 249.75,-504 243.75,-498 243.75,-492 243.75,-492 243.75,-476 243.75,-476 243.75,-470 249.75,-464 255.75,-464 255.75,-464 378.75,-464 378.75,-464 384.75,-464 390.75,-470 390.75,-476 390.75,-476 390.75,-492 390.75,-492 390.75,-498 384.75,-504 378.75,-504"/>
<text text-anchor="middle" x="317.25" y="-487.4" font-family="Noto Sans CJK SC" font-size="12.00">=1：读取 4997</text>
<text text-anchor="middle" x="317.25" y="-474.4" font-family="Noto Sans CJK SC" font-size="12.00">确认室内机数量 1–160</text>
</g>
<!-- ready&#45;&gt;count -->
<g id="edge4" class="edge">
<title>ready&#45;&gt;count</title>
<path fill="none" stroke="#657786" stroke-width="1.3" d="M226.58,-554.81C243.05,-542.13 265.73,-524.67 284.28,-510.38"/>
<polygon fill="#657786" stroke="#657786" stroke-width="1.3" points="286.43,-513.15 292.22,-504.27 282.16,-507.6 286.43,-513.15"/>
<text text-anchor="middle" x="269.75" y="-527" font-family="Noto Sans CJK SC" font-size="10.00">=1</text>
</g>
<!-- wait&#45;&gt;ready -->
<g id="edge3" class="edge">
<title>wait&#45;&gt;ready</title>
<path fill="none" stroke="#657786" stroke-width="1.3" d="M170,-504.27C176.15,-516.44 184.18,-532.32 190.92,-545.65"/>
<polygon fill="#657786" stroke="#657786" stroke-width="1.3" points="187.92,-547.47 195.56,-554.81 194.17,-544.31 187.92,-547.47"/>
<text text-anchor="middle" x="195.25" y="-527" font-family="Noto Sans CJK SC" font-size="10.00">重试</text>
</g>
<!-- discover -->
<g id="node5" class="node">
<title>discover</title>
<path fill="#e9f4f7" stroke="#607080" d="M352.25,-423C352.25,-423 282.25,-423 282.25,-423 276.25,-423 270.25,-417 270.25,-411 270.25,-411 270.25,-369 270.25,-369 270.25,-363 276.25,-357 282.25,-357 282.25,-357 352.25,-357 352.25,-357 358.25,-357 364.25,-363 364.25,-369 364.25,-369 364.25,-411 364.25,-411 364.25,-417 358.25,-423 352.25,-423"/>
<text text-anchor="middle" x="317.25" y="-406.4" font-family="Noto Sans CJK SC" font-size="12.00">逐台读取</text>
<text text-anchor="middle" x="317.25" y="-393.4" font-family="Noto Sans CJK SC" font-size="12.00">B+16 机种</text>
<text text-anchor="middle" x="317.25" y="-380.4" font-family="Noto Sans CJK SC" font-size="12.00">B+26 系统号</text>
<text text-anchor="middle" x="317.25" y="-367.4" font-family="Noto Sans CJK SC" font-size="12.00">B+27 地址号</text>
</g>
<!-- count&#45;&gt;discover -->
<g id="edge5" class="edge">
<title>count&#45;&gt;discover</title>
<path fill="none" stroke="#657786" stroke-width="1.3" d="M317.25,-463.94C317.25,-455 317.25,-443.98 317.25,-433.23"/>
<polygon fill="#657786" stroke="#657786" stroke-width="1.3" points="320.75,-433.08 317.25,-423.08 313.75,-433.08 320.75,-433.08"/>
</g>
<!-- mapping -->
<g id="node6" class="node">
<title>mapping</title>
<path fill="#fff2d8" stroke="#607080" d="M372.75,-316C372.75,-316 261.75,-316 261.75,-316 255.75,-316 249.75,-310 249.75,-304 249.75,-304 249.75,-288 249.75,-288 249.75,-282 255.75,-276 261.75,-276 261.75,-276 372.75,-276 372.75,-276 378.75,-276 384.75,-282 384.75,-288 384.75,-288 384.75,-304 384.75,-304 384.75,-310 378.75,-316 372.75,-316"/>
<text text-anchor="middle" x="317.25" y="-299.4" font-family="Noto Sans CJK SC" font-size="12.00">建立 Y→房间映射</text>
<text text-anchor="middle" x="317.25" y="-286.4" font-family="Noto Sans CJK SC" font-size="12.00">原厂线控器逐房测试</text>
</g>
<!-- discover&#45;&gt;mapping -->
<g id="edge6" class="edge">
<title>discover&#45;&gt;mapping</title>
<path fill="none" stroke="#657786" stroke-width="1.3" d="M317.25,-356.82C317.25,-346.85 317.25,-335.93 317.25,-326.17"/>
<polygon fill="#657786" stroke="#657786" stroke-width="1.3" points="320.75,-326.15 317.25,-316.15 313.75,-326.15 320.75,-326.15"/>
</g>
<!-- poll -->
<g id="node7" class="node">
<title>poll</title>
<path fill="#eaf6ed" stroke="#607080" d="M345.75,-235C345.75,-235 288.75,-235 288.75,-235 282.75,-235 276.75,-229 276.75,-223 276.75,-223 276.75,-207 276.75,-207 276.75,-201 282.75,-195 288.75,-195 288.75,-195 345.75,-195 345.75,-195 351.75,-195 357.75,-201 357.75,-207 357.75,-207 357.75,-223 357.75,-223 357.75,-229 351.75,-235 345.75,-235"/>
<text text-anchor="middle" x="317.25" y="-218.4" font-family="Noto Sans CJK SC" font-size="12.00">正常轮询</text>
<text text-anchor="middle" x="317.25" y="-205.4" font-family="Noto Sans CJK SC" font-size="12.00">B+28…39</text>
</g>
<!-- mapping&#45;&gt;poll -->
<g id="edge7" class="edge">
<title>mapping&#45;&gt;poll</title>
<path fill="none" stroke="#657786" stroke-width="1.3" d="M317.25,-275.88C317.25,-266.73 317.25,-255.57 317.25,-245.37"/>
<polygon fill="#657786" stroke="#657786" stroke-width="1.3" points="320.75,-245.22 317.25,-235.22 313.75,-245.22 320.75,-245.22"/>
</g>
<!-- command -->
<g id="node8" class="node">
<title>command</title>
<path fill="#fff2d8" stroke="#d28e1e" stroke-width="2" d="M301.75,-144C301.75,-144 238.75,-144 238.75,-144 232.75,-144 226.75,-138 226.75,-132 226.75,-132 226.75,-103 226.75,-103 226.75,-97 232.75,-91 238.75,-91 238.75,-91 301.75,-91 301.75,-91 307.75,-91 313.75,-97 313.75,-103 313.75,-103 313.75,-132 313.75,-132 313.75,-138 307.75,-144 301.75,-144"/>
<text text-anchor="middle" x="270.25" y="-127.4" font-family="Noto Sans CJK SC" font-size="12.00">受保护控制</text>
<text text-anchor="middle" x="270.25" y="-114.4" font-family="Noto Sans CJK SC" font-size="12.00">B+78…83</text>
<text text-anchor="middle" x="270.25" y="-101.4" font-family="Noto Sans CJK SC" font-size="12.00">写后回读</text>
</g>
<!-- poll&#45;&gt;command -->
<g id="edge8" class="edge">
<title>poll&#45;&gt;command</title>
<path fill="none" stroke="#657786" stroke-width="1.3" d="M287.75,-194.63C281.55,-189.07 275.82,-182.46 272.25,-175 269.21,-168.63 267.71,-161.39 267.14,-154.26"/>
<polygon fill="#657786" stroke="#657786" stroke-width="1.3" points="270.63,-153.92 266.89,-144.01 263.64,-154.09 270.63,-153.92"/>
<text text-anchor="middle" x="308.75" y="-167" font-family="Noto Sans CJK SC" font-size="10.00">用户/自动化请求</text>
</g>
<!-- throttle -->
<g id="node9" class="node">
<title>throttle</title>
<path fill="#fce8e6" stroke="#607080" d="M398.25,-40C398.25,-40 236.25,-40 236.25,-40 230.25,-40 224.25,-34 224.25,-28 224.25,-28 224.25,-12 224.25,-12 224.25,-6 230.25,0 236.25,0 236.25,0 398.25,0 398.25,0 404.25,0 410.25,-6 410.25,-12 410.25,-12 410.25,-28 410.25,-28 410.25,-34 404.25,-40 398.25,-40"/>
<text text-anchor="middle" x="317.25" y="-23.4" font-family="Noto Sans CJK SC" font-size="12.00">同一室内机写入间隔 ≥500ms</text>
<text text-anchor="middle" x="317.25" y="-10.4" font-family="Noto Sans CJK SC" font-size="12.00">暂不写 B+85/B+87</text>
</g>
<!-- command&#45;&gt;throttle -->
<g id="edge9" class="edge">
<title>command&#45;&gt;throttle</title>
<path fill="none" stroke="#657786" stroke-width="1.3" d="M282.85,-90.91C289.15,-78.1 296.79,-62.57 303.27,-49.4"/>
<polygon fill="#657786" stroke="#657786" stroke-width="1.3" points="306.48,-50.81 307.75,-40.3 300.2,-47.72 306.48,-50.81"/>
<text text-anchor="middle" x="317.25" y="-63" font-family="Noto Sans CJK SC" font-size="10.00">状态确认</text>
</g>
<!-- throttle&#45;&gt;poll -->
<g id="edge10" class="edge">
<title>throttle&#45;&gt;poll</title>
<path fill="none" stroke="#657786" stroke-width="1.3" d="M333.02,-40.14C337.11,-46.14 340.99,-53.03 343.25,-60 412.37,-273.41 355.14,-151.81 347.25,-175 345.89,-179 343.93,-182.92 341.66,-186.62"/>
<polygon fill="#657786" stroke="#657786" stroke-width="1.3" points="338.77,-184.65 335.92,-194.85 344.52,-188.65 338.77,-184.65"/>
<text text-anchor="middle" x="387.25" y="-115" font-family="Noto Sans CJK SC" font-size="10.00">状态确认</text>
</g>
<!-- rescan -->
<g id="node10" class="node">
<title>rescan</title>
<path fill="none" stroke="#607080" stroke-dasharray="5,2" d="M373.75,-685C373.75,-685 238.75,-685 238.75,-685 232.75,-685 226.75,-679 226.75,-673 226.75,-673 226.75,-644 226.75,-644 226.75,-638 232.75,-632 238.75,-632 238.75,-632 373.75,-632 373.75,-632 379.75,-632 385.75,-638 385.75,-644 385.75,-644 385.75,-673 385.75,-673 385.75,-679 379.75,-685 373.75,-685"/>
<text text-anchor="middle" x="306.25" y="-668.4" font-family="Noto Sans CJK SC" font-size="12.00">4999=1</text>
<text text-anchor="middle" x="306.25" y="-655.4" font-family="Noto Sans CJK SC" font-size="12.00">只在拓扑变化时人工触发</text>
<text text-anchor="middle" x="306.25" y="-642.4" font-family="Noto Sans CJK SC" font-size="12.00">最长约40分钟</text>
</g>
<!-- rescan&#45;&gt;ready -->
<g id="edge11" class="edge">
<title>rescan&#45;&gt;ready</title>
<path fill="none" stroke="#657786" stroke-width="1.3" stroke-dasharray="5,2" d="M275.09,-631.99C261.7,-621.03 246.15,-608.3 233.03,-597.56"/>
<polygon fill="#657786" stroke="#657786" stroke-width="1.3" points="235.18,-594.79 225.22,-591.17 230.74,-600.21 235.18,-594.79"/>
</g>
</g>
</svg>
